<svg width="34" height="34" viewBox="0 0 34 34" fill="none" xmlns="http://www.w3.org/2000/svg">
<path d="M28.3659 21.9413C27.4734 21.9201 26.35 21.8677 25.6403 21.743C24.8724 21.607 23.9487 21.3435 23.2985 21.1409C22.7885 20.9823 22.2332 21.1225 21.8549 21.4993L18.7142 24.6217C16.5438 23.4784 14.8056 22.1467 13.3337 20.6663C11.8532 19.1944 10.5216 17.4562 9.37833 15.2858L12.5007 12.1437C12.8775 11.7654 13.0177 11.2101 12.8591 10.7001C12.6579 10.0512 12.393 9.12758 12.2584 8.35975C12.1323 7.65 12.0813 6.52658 12.0587 5.63408C12.0402 4.862 11.4113 4.25 10.6392 4.25H5.66667C5.04617 4.25 4.25 4.71467 4.25 5.66667C4.25 12.0969 6.85667 18.2382 11.2852 22.7148C15.7618 27.1433 21.9031 29.75 28.3333 29.75C29.2853 29.75 29.75 28.9538 29.75 28.3333V23.3608C29.75 22.5887 29.138 21.9597 28.3659 21.9413Z" fill="#1D3448"/>
</svg>
