<svg width="24" height="24" viewBox="0 0 24 24" fill="none" xmlns="http://www.w3.org/2000/svg">
<path d="M10 6C7.42267 6 5.33334 7.79067 5.33334 10C5.33334 10.7513 5.57934 11.4514 6 12.0521V15.3333L8.19271 13.6888C8.57083 13.8248 8.97621 13.9154 9.39714 13.9622C9.74996 15.8719 11.673 17.3333 14 17.3333C14.6407 17.3333 15.2513 17.2221 15.8073 17.0221L18 18.6667V15.3854C18.4207 14.7848 18.6667 14.0847 18.6667 13.3333C18.6667 11.2997 16.8944 9.62531 14.6029 9.37109C14.25 7.46148 12.327 6 10 6ZM10 7.33333C11.838 7.33333 13.3333 8.52933 13.3333 10C13.3333 11.4707 11.838 12.6667 10 12.6667C9.52867 12.6667 9.07317 12.5883 8.64584 12.4336L7.96875 12.1901L7.39323 12.6211L7.33334 12.6667V12.0521V11.6315L7.09245 11.2878C6.81045 10.8851 6.66667 10.4513 6.66667 10C6.66667 8.52933 8.162 7.33333 10 7.33333ZM14.5872 10.7148C16.1449 10.9382 17.3333 12.0237 17.3333 13.3333C17.3333 13.7847 17.1896 14.2178 16.9076 14.6211L16.6667 14.9648V15.3854V16L16.6068 15.9557L16.0326 15.5234L15.3555 15.7682C14.9275 15.9222 14.4713 16 14 16C12.4253 16 11.1098 15.1191 10.763 13.9427C12.7038 13.6683 14.2382 12.37 14.5872 10.7148Z" fill="white"/>
<rect x="0.5" y="0.5" width="23" height="23" rx="3.5" stroke="white" stroke-opacity="0.2"/>
</svg>
