<svg width="16" height="16" viewBox="0 0 16 16" fill="none" xmlns="http://www.w3.org/2000/svg">
<path d="M3.33333 2C2.598 2 2 2.598 2 3.33333V12.6667C2 13.402 2.598 14 3.33333 14H7.7474H9.60937H12.6667C13.402 14 14 13.402 14 12.6667V3.33333C14 2.598 13.402 2 12.6667 2H3.33333ZM3.33333 3.33333H12.6667L12.668 12.6667H9.60937V10.0234H11.1862L11.4206 8.20703H9.61979V7.04948C9.61979 6.52415 9.7662 6.16927 10.5195 6.16927H11.4714V4.54818C11.008 4.50084 10.5428 4.47783 10.0768 4.47917C8.69416 4.47917 7.7474 5.32306 7.7474 6.8724V8.20964H6.1849V10.026H7.7474V12.6667H3.33333V3.33333Z" fill="white"/>
</svg>
