<svg width="16" height="16" viewBox="0 0 16 16" fill="none" xmlns="http://www.w3.org/2000/svg">
<path d="M9.39192 1.33331C9.29659 1.33331 9.19953 1.34574 9.10286 1.37107L3.73047 2.81118C3.13713 2.97051 2.78598 3.57982 2.94531 4.17316L5.53515 13.8424C5.66849 14.3391 6.1174 14.6666 6.60807 14.6666C6.7034 14.6666 6.80047 14.6542 6.89713 14.6289L12.2682 13.1888C12.8616 13.0301 13.2134 12.4201 13.0547 11.8268L10.4648 2.15753C10.3315 1.66087 9.88259 1.33331 9.39192 1.33331ZM9.23437 2.71613L9.54817 3.8867L4.60937 5.23696L4.28906 4.04165L9.23437 2.71613ZM13.8333 3.55857L12.5456 3.90363L13.9844 9.27602L15.2721 8.93097L13.8333 3.55857ZM9.89323 5.17576L11.0469 9.48175L6.10807 10.832L4.95443 6.52472L9.89323 5.17576ZM2.01562 6.72524L0.727863 7.07029L2.16667 12.4414L3.45443 12.0963L2.01562 6.72524ZM11.3919 10.7708L11.7109 11.9583L6.76562 13.2838L6.45312 12.1198L11.3919 10.7708Z" fill="white"/>
</svg>
