<svg width="16" height="16" viewBox="0 0 16 16" fill="none" xmlns="http://www.w3.org/2000/svg">
<path d="M8.88801 1.33331C8.26735 1.33331 7.64651 1.39113 7.03385 1.50779C4.51385 2.01513 2.23289 3.50167 0.768223 5.67967C0.551557 6.00167 0.715775 6.34172 0.925775 6.48305L2.60937 7.61456C2.7087 7.68123 2.82225 7.71352 2.93359 7.71352C2.97092 7.71352 3.0089 7.71044 3.04557 7.7031C3.18623 7.67577 3.31691 7.59603 3.40624 7.47003C3.61691 7.1727 3.88974 6.80443 4.09374 6.59243C4.31441 6.36309 4.61536 6.10888 4.83203 5.93488C5.00203 5.79821 5.08039 5.57986 5.03906 5.36586L4.71223 3.75909C5.5849 3.28843 6.4246 3.00313 7.2526 2.84113C7.2606 2.83979 7.26803 2.83855 7.27603 2.83722C7.28404 2.83589 7.29278 2.83334 7.30078 2.83201C7.83678 2.72601 8.39621 2.66665 8.99088 2.66665C9.31621 2.66665 9.65199 2.684 9.99999 2.72133L10.3372 4.3268C10.3799 4.5408 10.5361 4.71335 10.7448 4.77602C11.0108 4.85602 11.3831 4.97611 11.6745 5.10545C11.9431 5.22411 12.3366 5.46283 12.6432 5.65883C12.7399 5.72017 12.8471 5.75128 12.9531 5.75128C12.9905 5.75128 13.0284 5.7469 13.0651 5.73956C13.2104 5.7109 13.3456 5.62614 13.4349 5.49347L14.5664 3.80988C14.7091 3.59988 14.7335 3.22379 14.4101 3.00779C12.7608 1.89846 10.826 1.33331 8.88801 1.33331ZM11.431 3.04685C11.9816 3.21619 12.5135 3.4407 13.0208 3.72003L12.7305 4.15232C12.5325 4.03966 12.3615 3.95136 12.2148 3.8867C12.0302 3.8047 11.8087 3.7214 11.5534 3.6354L11.431 3.04685ZM3.52473 4.61196L3.64322 5.19008C3.44389 5.36142 3.27278 5.52134 3.13411 5.66534C3.02144 5.78201 2.89784 5.92742 2.7565 6.10675L2.32551 5.81639C2.68418 5.37505 3.08673 4.97196 3.52473 4.61196ZM5.99999 5.33331V6.66665L3.16796 8.93227C2.8513 9.18494 2.66666 9.5686 2.66666 9.97394V13.3333H1.99999V14.6666H14V13.3333H13.3333V9.97394C13.3333 9.5686 13.1487 9.1856 12.832 8.93227L9.99999 6.66665V5.33331H8.66666V6.66665H7.33333V5.33331H5.99999ZM6.46744 7.99998H9.53255L12 9.97394V13.3333H3.99999V9.97394L6.46744 7.99998ZM5.99999 9.33331C5.82318 9.33331 5.65361 9.40355 5.52859 9.52857C5.40357 9.6536 5.33333 9.82317 5.33333 9.99998C5.33333 10.1768 5.40357 10.3464 5.52859 10.4714C5.65361 10.5964 5.82318 10.6666 5.99999 10.6666C6.17681 10.6666 6.34637 10.5964 6.4714 10.4714C6.59642 10.3464 6.66666 10.1768 6.66666 9.99998C6.66666 9.82317 6.59642 9.6536 6.4714 9.52857C6.34637 9.40355 6.17681 9.33331 5.99999 9.33331ZM7.99999 9.33331C7.82318 9.33331 7.65361 9.40355 7.52859 9.52857C7.40357 9.6536 7.33333 9.82317 7.33333 9.99998C7.33333 10.1768 7.40357 10.3464 7.52859 10.4714C7.65361 10.5964 7.82318 10.6666 7.99999 10.6666C8.17681 10.6666 8.34637 10.5964 8.4714 10.4714C8.59642 10.3464 8.66666 10.1768 8.66666 9.99998C8.66666 9.82317 8.59642 9.6536 8.4714 9.52857C8.34637 9.40355 8.17681 9.33331 7.99999 9.33331ZM9.99999 9.33331C9.82318 9.33331 9.65361 9.40355 9.52859 9.52857C9.40357 9.6536 9.33333 9.82317 9.33333 9.99998C9.33333 10.1768 9.40357 10.3464 9.52859 10.4714C9.65361 10.5964 9.82318 10.6666 9.99999 10.6666C10.1768 10.6666 10.3464 10.5964 10.4714 10.4714C10.5964 10.3464 10.6667 10.1768 10.6667 9.99998C10.6667 9.82317 10.5964 9.6536 10.4714 9.52857C10.3464 9.40355 10.1768 9.33331 9.99999 9.33331ZM5.99999 11.3333C5.82318 11.3333 5.65361 11.4036 5.52859 11.5286C5.40357 11.6536 5.33333 11.8232 5.33333 12C5.33333 12.1768 5.40357 12.3464 5.52859 12.4714C5.65361 12.5964 5.82318 12.6666 5.99999 12.6666C6.17681 12.6666 6.34637 12.5964 6.4714 12.4714C6.59642 12.3464 6.66666 12.1768 6.66666 12C6.66666 11.8232 6.59642 11.6536 6.4714 11.5286C6.34637 11.4036 6.17681 11.3333 5.99999 11.3333ZM7.99999 11.3333C7.82318 11.3333 7.65361 11.4036 7.52859 11.5286C7.40357 11.6536 7.33333 11.8232 7.33333 12C7.33333 12.1768 7.40357 12.3464 7.52859 12.4714C7.65361 12.5964 7.82318 12.6666 7.99999 12.6666C8.17681 12.6666 8.34637 12.5964 8.4714 12.4714C8.59642 12.3464 8.66666 12.1768 8.66666 12C8.66666 11.8232 8.59642 11.6536 8.4714 11.5286C8.34637 11.4036 8.17681 11.3333 7.99999 11.3333ZM9.99999 11.3333C9.82318 11.3333 9.65361 11.4036 9.52859 11.5286C9.40357 11.6536 9.33333 11.8232 9.33333 12C9.33333 12.1768 9.40357 12.3464 9.52859 12.4714C9.65361 12.5964 9.82318 12.6666 9.99999 12.6666C10.1768 12.6666 10.3464 12.5964 10.4714 12.4714C10.5964 12.3464 10.6667 12.1768 10.6667 12C10.6667 11.8232 10.5964 11.6536 10.4714 11.5286C10.3464 11.4036 10.1768 11.3333 9.99999 11.3333Z" fill="white"/>
</svg>
