<svg width="16" height="16" viewBox="0 0 16 16" fill="none" xmlns="http://www.w3.org/2000/svg">
<path d="M5.33333 2C3.49533 2 2 3.49533 2 5.33333V10.6667C2 12.5047 3.49533 14 5.33333 14H10.6667C12.5047 14 14 12.5047 14 10.6667V5.33333C14 3.49533 12.5047 2 10.6667 2H5.33333ZM5.33333 3.33333H10.6667C11.7693 3.33333 12.6667 4.23067 12.6667 5.33333V10.6667C12.6667 11.7693 11.7693 12.6667 10.6667 12.6667H5.33333C4.23067 12.6667 3.33333 11.7693 3.33333 10.6667V5.33333C3.33333 4.23067 4.23067 3.33333 5.33333 3.33333ZM11.3333 4C11.1565 4 10.987 4.07024 10.8619 4.19526C10.7369 4.32029 10.6667 4.48986 10.6667 4.66667C10.6667 4.84348 10.7369 5.01305 10.8619 5.13807C10.987 5.2631 11.1565 5.33333 11.3333 5.33333C11.5101 5.33333 11.6797 5.2631 11.8047 5.13807C11.9298 5.01305 12 4.84348 12 4.66667C12 4.48986 11.9298 4.32029 11.8047 4.19526C11.6797 4.07024 11.5101 4 11.3333 4ZM8 4.66667C6.162 4.66667 4.66667 6.162 4.66667 8C4.66667 9.838 6.162 11.3333 8 11.3333C9.838 11.3333 11.3333 9.838 11.3333 8C11.3333 6.162 9.838 4.66667 8 4.66667ZM8 6C9.10267 6 10 6.89733 10 8C10 9.10267 9.10267 10 8 10C6.89733 10 6 9.10267 6 8C6 6.89733 6.89733 6 8 6Z" fill="white"/>
</svg>
