<svg width="29" height="24" viewBox="0 0 29 24" fill="none" xmlns="http://www.w3.org/2000/svg">
<path d="M28.5583 9.70632C28.2822 8.98623 27.7154 8.34335 27.0255 7.8798C25.0337 6.62307 21.9984 6.53357 19.9461 7.66972C18.8269 8.23677 18.0912 9.35891 17.8623 10.5145C17.447 12.4131 17.5543 14.6721 19.0262 16.0952C20.7426 17.5904 23.2407 17.9207 25.4621 17.3065C25.5676 17.2863 25.9021 17.2027 26.1327 17.081L26.1977 17.0534C26.8876 16.7685 27.5456 16.3046 28.0368 15.6764C29.1705 14.0292 29.2482 11.5612 28.5583 9.70632ZM24.9416 13.9698C24.8632 14.3298 24.6195 14.7029 24.2352 14.8381C23.6233 15.1056 22.7955 15.0315 22.2287 14.7186C21.7533 14.3882 21.6921 13.8352 21.6309 13.3119C21.5845 12.2802 21.5095 11.1878 21.8004 10.2447C22.0283 9.66054 22.657 9.51024 23.2256 9.46618C23.8227 9.46618 24.404 9.5567 24.7728 10.0353C25.0025 10.3786 24.9884 10.8278 25.0337 11.2322C25.0176 12.0845 25.0946 13.1011 24.9416 13.9698ZM6.78198 14.8989C6.27597 14.8682 5.70911 14.9122 5.21926 14.8525L5.23438 9.5994L5.26532 9.55567L6.78198 9.54099C6.79779 8.68836 6.81291 7.77391 6.76616 6.99677L0.99002 6.98072L0.0388449 6.99712C0.0237196 7.78962 0.0237196 8.71637 0.0388449 9.52527C0.560324 9.54133 1.04983 9.52527 1.55584 9.57207V14.6595L1.54106 14.8685L0.0237196 14.8993C-0.00790652 15.722 -0.00790652 16.5456 0.0237196 17.3683H6.78163L6.78198 14.8989ZM23.7911 18.4894C23.1482 19.4032 22.3359 20.2859 21.449 20.9725C21.4167 21.0193 21.3249 21.0015 21.2957 20.9585C20.9114 20.7197 20.4979 20.5243 20.1294 20.2859C20.6202 19.7028 21.0957 19.1194 21.4635 18.4734H20.9867C20.6058 19.0292 20.2064 19.6123 19.701 20.1045C19.0262 19.8357 18.4137 19.5966 17.7241 19.4155L17.6474 19.3585C17.7547 19.0562 17.9534 18.7723 18.0142 18.4727H17.6007L17.1871 19.2813C16.2841 19.0869 15.2875 18.981 14.368 18.9219C14.3216 18.7877 14.3824 18.593 14.3216 18.4727H13.9232C13.8916 18.6527 13.9692 18.7883 13.8771 18.9376C12.927 18.981 12.0078 19.0869 11.1198 19.2683L10.7046 18.4727C10.553 18.4727 10.3825 18.444 10.2766 18.4888L10.6589 19.3718L10.6131 19.4155C9.92634 19.613 9.25108 19.8481 8.59048 20.1199L8.52964 20.0891C8.0996 19.6253 7.68571 19.1187 7.34814 18.6097C7.27217 18.3538 6.96554 18.5035 6.79676 18.4734C7.1632 19.1327 7.65512 19.7154 8.14463 20.3149C7.73109 20.5551 7.31892 20.8229 6.88785 21.0193C5.95049 20.3099 5.13337 19.4561 4.46746 18.4901C4.28321 18.4608 4.16186 18.4741 3.97658 18.4901C5.08004 20.1961 6.79676 21.6919 8.58979 22.5749C8.58979 22.5749 8.58979 22.5616 8.60629 22.5616C8.61936 22.5616 8.64995 22.5893 8.61936 22.605C9.83075 23.1888 11.1188 23.6076 12.4815 23.788C17.1865 24.4008 21.677 22.4117 24.2806 18.4901C24.1178 18.4735 23.9538 18.4733 23.7911 18.4894ZM17.4023 19.836L17.4474 19.806C18.1081 19.9556 18.7351 20.1653 19.3178 20.4488C18.8269 21.0012 18.1985 21.4811 17.6168 21.8849C17.2648 22.0936 16.9111 22.3205 16.5429 22.4988L15.8853 22.2146L15.9304 22.1111C16.4831 21.3783 16.9737 20.6292 17.4023 19.836ZM14.3824 19.3868C15.2566 19.4032 16.1304 19.4927 16.9414 19.6864L16.9575 19.7318C16.5292 20.539 15.9916 21.3189 15.4103 22.0506C15.1483 22.0813 14.9043 21.9778 14.644 21.9618L14.3821 21.931C14.3522 21.048 14.336 20.2698 14.3824 19.3868ZM11.4261 19.656C12.223 19.5064 13.05 19.3868 13.9077 19.3868L13.9235 21.9184C13.6011 21.9908 13.2487 21.9908 12.9421 22.0677C12.3137 21.3326 11.7933 20.539 11.3495 19.7154L11.4261 19.656ZM8.95761 20.4649C9.55678 20.1797 10.1841 19.9689 10.827 19.8056L10.8892 19.8213C11.3323 20.6446 11.8847 21.4221 12.4361 22.2002C12.2233 22.3208 11.9614 22.3929 11.7475 22.5145C10.7112 22.0058 9.76826 21.3277 8.95796 20.5086V20.4649H8.95761ZM10.9352 23.0235C9.64788 22.6931 8.4516 22.1247 7.34849 21.3479V21.3015C7.71631 21.0791 8.0855 20.8389 8.48254 20.6726C9.35671 21.5279 10.2601 22.1715 11.2408 22.7837C11.1645 22.8735 11.0422 22.9637 10.9352 23.0235ZM16.6199 23.2168C14.996 23.5632 13.1869 23.5765 11.5633 23.1881C11.5324 23.1136 11.6399 23.0976 11.6857 23.0539C13.1109 22.1401 15.3319 22.1401 16.7279 23.1266C16.7733 23.2168 16.6509 23.1881 16.6199 23.2168ZM18.0916 22.7994L17.3714 23.0231C17.2483 22.9633 17.1418 22.8735 17.0335 22.7833L17.0644 22.7375C18.0455 22.1712 18.9338 21.4808 19.777 20.6579C20.1909 20.8222 20.5897 21.048 20.9585 21.3011C20.0995 21.9778 19.1029 22.4246 18.0916 22.7994ZM4.43756 5.84389C4.8166 5.32263 5.23123 4.82786 5.67852 4.36307C6.07556 3.98902 6.44475 3.63 6.87445 3.35946C7.2732 3.6136 7.71699 3.82539 8.09994 4.06383C7.62521 4.64454 7.13467 5.23072 6.78232 5.85755C6.88889 5.90435 7.08895 5.88966 7.24261 5.85755C7.62521 5.30485 8.03772 4.75146 8.52998 4.25717C9.18724 4.49731 9.83179 4.75078 10.5069 4.93114L10.5664 4.99058L10.1848 5.85755C10.354 5.88966 10.4612 5.87395 10.6286 5.85755C10.7661 5.60477 10.8727 5.32124 11.026 5.06539C11.916 5.26078 12.851 5.36497 13.8011 5.394C13.9228 5.50024 13.8314 5.72365 13.8775 5.85755H14.291C14.336 5.71066 14.2755 5.54397 14.336 5.41074C15.2257 5.36429 16.16 5.27445 17.0211 5.06471L17.0957 5.08042L17.5096 5.85687C17.6478 5.85687 17.8313 5.88898 17.9386 5.82612L17.5546 4.96052L17.5866 4.93046C18.2903 4.75078 18.9503 4.4816 19.6244 4.21276C20.1008 4.70637 20.5439 5.28982 20.9437 5.85653C21.1115 5.85653 21.2803 5.87292 21.403 5.82578C21.2137 5.4917 20.993 5.17624 20.7437 4.88366C20.5413 4.59708 20.3155 4.32756 20.0685 4.07783V4.00029L21.1414 3.38781L21.2961 3.32803C22.2291 4.0298 23.0456 4.87262 23.7158 5.82578C23.8997 5.82578 24.0533 5.88864 24.207 5.81314C22.1513 2.76303 18.7653 0.800557 15.1047 0.518056L15.0885 0.547092L15.0572 0.518056C14.644 0.47399 14.1363 0.456569 13.6925 0.500635C13.5244 0.487654 13.3257 0.500635 13.126 0.518056C9.44884 0.800557 6.06249 2.67216 3.94667 5.85823C4.09999 5.84389 4.2839 5.90469 4.43756 5.84389ZM10.7981 4.52908L10.7369 4.54206C10.1078 4.37912 9.49422 4.1827 8.91189 3.92924L8.94146 3.8394C9.78435 3.04655 10.673 2.38761 11.6537 1.88C11.8847 1.96984 12.1143 2.04397 12.344 2.1502L12.2989 2.26703C11.7156 2.98712 11.257 3.76356 10.7981 4.52908ZM13.8465 4.93182C13.4185 4.9916 13.0353 4.9185 12.6045 4.88537C12.1927 4.82525 11.6705 4.78186 11.257 4.64523C11.7015 3.82608 12.2233 3.03152 12.851 2.30017L13.8321 2.43305C13.8775 3.20984 13.8465 4.10824 13.8465 4.93182ZM14.3212 4.94788C14.291 4.1523 14.3068 3.27064 14.3212 2.44739C14.6289 2.40367 14.9644 2.35721 15.2717 2.31315C15.8692 3.06022 16.4529 3.82608 16.8516 4.64523C16.0231 4.84444 15.1737 4.94602 14.3212 4.94788ZM19.2112 3.89884C18.6124 4.15196 17.9988 4.39176 17.3408 4.52908C16.8661 3.7359 16.3453 2.94305 15.7612 2.17685C15.9761 2.05968 16.238 1.96984 16.4673 1.85062C17.4652 2.34389 18.4295 3.04655 19.2408 3.85204L19.2112 3.89884ZM17.2483 1.34028C18.5357 1.67026 19.7464 2.23799 20.8499 3.01615L20.8193 3.07593L19.7629 3.65869H19.6849C18.874 2.85355 17.9242 2.1502 16.9575 1.59511C16.9881 1.49024 17.1421 1.41475 17.2483 1.34028ZM16.6361 1.18998V1.22175C15.302 2.17685 13.1418 2.26703 11.7328 1.384C11.6537 1.32422 11.5024 1.29519 11.4859 1.19032C13.1112 0.817978 15.0256 0.787918 16.6361 1.18998ZM7.28764 3.04655C8.25394 2.34389 9.32612 1.82022 10.4605 1.46086C10.5069 1.41406 10.5365 1.37 10.597 1.37V1.40074C10.7194 1.43012 10.8118 1.29451 10.9187 1.38332C11.0112 1.46086 11.1195 1.51996 11.1951 1.59443C10.2457 2.17685 9.31031 2.86653 8.45195 3.70276C8.03806 3.55587 7.65649 3.33008 7.2873 3.07593L7.28764 3.04655ZM13.8623 15.0158C12.422 15.4055 10.8579 15.1083 9.81632 14.0292C9.69428 13.8796 9.61694 13.7013 9.49387 13.5524L7.42583 13.5667C7.39318 14.7783 7.37874 16.1703 7.42583 17.368L9.7235 17.3533L9.7541 16.6346C10.0157 16.7541 10.2766 16.9034 10.5365 17.0377C12.1301 17.6969 14.1817 17.8466 15.7606 17.0377C16.9108 16.4108 17.524 15.1992 17.3549 13.8946C17.1871 12.6242 15.9606 11.4713 14.7203 11.1581L11.0109 10.0947L10.7366 9.95944C10.6138 9.8556 10.5368 9.72169 10.5667 9.55567C10.8579 9.06309 11.533 9.21271 12.0387 9.22603C13.1112 9.37599 14.2143 9.73501 14.8431 10.7082C15.5165 10.7082 16.2978 10.7212 17.0328 10.6925C17.0641 9.46583 17.0208 8.38912 17.0026 7.14674C16.313 7.13102 15.4697 7.13102 14.7812 7.16245C14.7503 7.34042 14.8108 7.59389 14.7341 7.77425L14.0297 7.39986C12.3433 6.69685 9.98304 6.62341 8.45126 7.71584C7.45471 8.43285 7.14911 9.72101 7.40968 10.8578C7.60802 11.9335 8.64995 12.7274 9.6465 13.1004C11.0102 13.5787 12.4347 13.925 13.8163 14.3882C13.9531 14.449 14.1367 14.5847 14.1071 14.749C14.1078 14.8818 13.9689 14.9587 13.8623 15.0158Z" fill="white"/>
</svg>
