<svg width="144" height="42" viewBox="0 0 144 42" fill="none" xmlns="http://www.w3.org/2000/svg">
<path d="M144 37.821C144 40.1591 142.16 42 139.866 42H4.03621C1.74209 42 0 40.2142 0 37.8756V4.11785C0 1.7789 1.74209 0 4.03621 0H139.866C142.16 0 143.98 1.7789 143.98 4.11785V37.8756L144 37.821Z" fill="white"/>
<path d="M31.8159 20.3886C31.7833 16.8913 34.6803 15.1886 34.8125 15.1099C33.1733 12.7167 30.6296 12.3911 29.7366 12.365C27.6023 12.1411 25.5309 13.6444 24.4452 13.6444C23.3361 13.6444 21.6577 12.3879 19.8553 12.4241C17.532 12.4616 15.3583 13.8061 14.1676 15.8935C11.7089 20.1514 13.5425 26.4083 15.898 29.8519C17.0774 31.5367 18.4547 33.4194 20.2574 33.3521C22.0205 33.2788 22.6785 32.2287 24.808 32.2287C26.9182 32.2287 27.5368 33.3521 29.3755 33.3099C31.2681 33.2788 32.4588 31.6165 33.5958 29.9152C34.9597 27.9836 35.5062 26.0813 35.5278 25.9829C35.4833 25.9682 31.852 24.5829 31.8159 20.3886Z" fill="#1D3448"/>
<path d="M28.3416 10.1014C29.2901 8.91528 29.9411 7.30018 29.7579 5.66309C28.3857 5.72389 26.6697 6.61188 25.6815 7.77318C24.8064 8.79578 24.0229 10.4724 24.2257 12.0477C25.7699 12.1622 27.3516 11.2688 28.3416 10.1014Z" fill="#1D3448"/>
<path d="M57.3407 33.1114H54.877L53.526 28.8666H48.8346L47.5472 33.1114H45.1475L49.7997 18.666H52.6691L57.3407 33.1114ZM53.1203 27.0867L51.9002 23.3146C51.7692 22.9303 51.5271 22.0223 51.1705 20.5944H51.1277C50.9843 21.2094 50.755 22.1157 50.4408 23.3146L49.2406 27.0867H53.1203Z" fill="#1D3448"/>
<path d="M69.2998 27.7739C69.2998 29.5456 68.8218 30.9459 67.8637 31.9749C67.0064 32.8894 65.9413 33.3455 64.6717 33.3455C63.2995 33.3455 62.313 32.8515 61.7127 31.8668H61.6719V37.3531H59.3556V26.1235C59.3556 25.0097 59.3277 23.868 59.2705 22.6948H61.3056L61.4347 24.3457H61.4787C62.2494 23.102 63.4222 22.4805 64.9926 22.4805C66.2193 22.4805 67.2469 22.9668 68.068 23.9385C68.8891 24.9117 69.2998 26.1893 69.2998 27.7739ZM66.9424 27.8591C66.9424 26.8451 66.7134 26.0093 66.2569 25.3514C65.7562 24.6662 65.0842 24.3224 64.2433 24.3224C63.6709 24.3224 63.1506 24.5138 62.6895 24.8902C62.2247 25.2716 61.9206 25.7668 61.7782 26.382C61.7063 26.6684 61.6719 26.9024 61.6719 27.087V28.8243C61.6719 29.5817 61.9027 30.2211 62.3656 30.7413C62.8318 31.2651 63.4353 31.5234 64.1778 31.5234C65.0497 31.5234 65.7288 31.1899 66.2129 30.5173C66.7005 29.8447 66.9424 28.9598 66.9424 27.8591Z" fill="#1D3448"/>
<path d="M81.2787 27.7739C81.2787 29.5456 80.8012 30.9459 79.8423 31.9749C78.9851 32.8894 77.9222 33.3455 76.6496 33.3455C75.2788 33.3455 74.294 32.8515 73.6937 31.8668H73.6511V37.3531H71.3366V26.1235C71.3366 25.0097 71.3069 23.868 71.2515 22.6948H73.2861L73.4156 24.3457H73.46C74.2285 23.102 75.3995 22.4805 76.9731 22.4805C78.2002 22.4805 79.2259 22.9668 80.0484 23.9385C80.8696 24.9117 81.2787 26.1893 81.2787 27.7739ZM78.9232 27.8591C78.9232 26.8451 78.6943 26.0093 78.236 25.3514C77.7354 24.6662 77.0647 24.3224 76.2225 24.3224C75.65 24.3224 75.1312 24.5138 74.6684 24.8902C74.2042 25.2716 73.9011 25.7668 73.7591 26.382C73.6854 26.6684 73.6511 26.9024 73.6511 27.087V28.8243C73.6511 29.5817 73.8815 30.2211 74.3462 30.7413C74.811 31.2651 75.4131 31.5234 76.1587 31.5234C77.0289 31.5234 77.7093 31.1899 78.1937 30.5173C78.6778 29.8447 78.9232 28.9598 78.9232 27.8591Z" fill="#1D3448"/>
<path d="M94.6743 29.0595C94.6743 30.2881 94.2489 31.2874 93.3902 32.0599C92.4495 32.9039 91.1391 33.3239 89.4573 33.3239C87.9036 33.3239 86.6557 33.0244 85.7119 32.4248L86.2485 30.496C87.2657 31.1106 88.3799 31.4165 89.5951 31.4165C90.4672 31.4165 91.1459 31.2205 91.633 30.828C92.1176 30.4337 92.3598 29.9071 92.3598 29.2494C92.3598 28.6638 92.16 28.1682 91.7609 27.7686C91.3616 27.3668 90.6942 26.9955 89.7652 26.6516C87.2362 25.7064 85.9738 24.3257 85.9738 22.5085C85.9738 21.3207 86.4153 20.3472 87.3022 19.5901C88.187 18.8309 89.3661 18.4502 90.8385 18.4502C92.1534 18.4502 93.2464 18.6806 94.1166 19.1368L93.5391 21.023C92.7242 20.5812 91.8035 20.359 90.7731 20.359C89.9584 20.359 89.3237 20.5583 88.8671 20.9589C88.4832 21.3157 88.2895 21.7525 88.2895 22.2663C88.2895 22.837 88.509 23.3099 88.9523 23.6795C89.3365 24.023 90.0371 24.3944 91.0527 24.7955C92.2958 25.296 93.2085 25.8813 93.796 26.5518C94.3811 27.2244 94.6743 28.0602 94.6743 29.0595Z" fill="#1D3448"/>
<path d="M102.325 24.4305H99.7745V29.4884C99.7745 30.7743 100.224 31.4168 101.126 31.4168C101.538 31.4168 101.881 31.3811 102.153 31.3106L102.216 33.0676C101.762 33.2389 101.16 33.3241 100.417 33.3241C99.5026 33.3241 98.7881 33.0461 98.2743 32.4902C97.7606 31.9324 97.5026 30.995 97.5026 29.6816V24.4305H95.981V22.6934H97.5026V20.7876L99.7745 20.1006V22.6934H102.325V24.4305Z" fill="#1D3448"/>
<path d="M113.834 27.8168C113.834 29.4178 113.378 30.7316 112.463 31.7606C111.504 32.8189 110.232 33.3455 108.649 33.3455C107.118 33.3455 105.902 32.8386 104.994 31.8239C104.086 30.81 103.633 29.5309 103.633 27.99C103.633 26.3735 104.1 25.0523 105.037 24.0251C105.971 22.9943 107.232 22.4805 108.819 22.4805C110.346 22.4805 111.577 22.9879 112.505 24.0022C113.392 24.99 113.834 26.2594 113.834 27.8168ZM111.433 27.8916C111.433 26.9317 111.226 26.1088 110.811 25.4204C110.327 24.5893 109.633 24.1736 108.734 24.1736C107.803 24.1736 107.096 24.5893 106.612 25.4204C106.196 26.1088 105.992 26.9463 105.992 27.9364C105.992 28.8962 106.196 29.7191 106.612 30.4064C107.111 31.2372 107.811 31.6525 108.714 31.6525C109.597 31.6525 110.291 31.2307 110.79 30.3849C111.218 29.683 111.433 28.8521 111.433 27.8916Z" fill="#1D3448"/>
<path d="M121.355 24.7299C121.127 24.6891 120.884 24.6662 120.627 24.6662C119.815 24.6662 119.183 24.9754 118.74 25.5888C118.356 26.132 118.162 26.8176 118.162 27.6451V33.1102H115.849L115.869 25.975C115.869 24.7743 115.839 23.6813 115.784 22.6948H117.799L117.884 24.6891H117.947C118.19 24.0036 118.578 23.4526 119.105 23.0387C119.618 22.6673 120.178 22.4805 120.778 22.4805C120.991 22.4805 121.185 22.4952 121.355 22.5217V24.7299Z" fill="#1D3448"/>
<path d="M131.705 27.4095C131.705 27.8252 131.677 28.1733 131.622 28.4599H124.679C124.705 29.4885 125.043 30.2753 125.685 30.8187C126.269 31.3045 127.028 31.5446 127.958 31.5446C128.983 31.5446 129.921 31.3811 130.765 31.0526L131.128 32.6605C130.143 33.0891 128.978 33.3049 127.634 33.3049C126.021 33.3049 124.751 32.8287 123.83 31.878C122.911 30.9292 122.448 29.652 122.448 28.0524C122.448 26.4821 122.876 25.1737 123.736 24.1297C124.634 23.0155 125.849 22.4595 127.377 22.4595C128.877 22.4595 130.015 23.0155 130.788 24.1297C131.399 25.0162 131.705 26.1089 131.705 27.4095ZM129.498 26.8091C129.515 26.125 129.364 25.5315 129.05 25.0309C128.649 24.388 128.032 24.066 127.205 24.066C126.449 24.066 125.834 24.3815 125.363 25.0098C124.977 25.5103 124.748 26.1089 124.679 26.8091H129.498Z" fill="#1D3448"/>
<path d="M52.2631 9.77896C52.2631 11.0564 51.882 12.0188 51.1164 12.6642C50.408 13.2598 49.4005 13.5593 48.0964 13.5593C47.4505 13.5593 46.8942 13.5314 46.4316 13.4741V6.49427C47.0348 6.39627 47.6877 6.34717 48.3897 6.34717C49.6326 6.34717 50.5697 6.61707 51.2029 7.15827C51.9094 7.76836 52.2631 8.64196 52.2631 9.77896ZM51.0655 9.81166C51.0655 8.98186 50.8448 8.34756 50.4066 7.90426C49.9665 7.46236 49.3286 7.24197 48.4842 7.24197C48.1261 7.24197 47.8219 7.26617 47.5683 7.31577V12.622C47.7089 12.6435 47.9658 12.6531 48.3369 12.6531C49.2071 12.6531 49.8813 12.4123 50.352 11.9268C50.8269 11.4428 51.0655 10.7375 51.0655 9.81166Z" fill="#1D3448"/>
<path d="M58.6232 10.8961C58.6232 11.6814 58.3972 12.3275 57.9489 12.8313C57.4783 13.3533 56.8529 13.6131 56.0744 13.6131C55.3217 13.6131 54.7249 13.363 54.2784 12.8642C53.8334 12.3669 53.6108 11.7386 53.6108 10.9798C53.6108 10.1862 53.8402 9.53692 54.3013 9.03172C54.7593 8.52573 55.3804 8.27393 56.1597 8.27393C56.9117 8.27393 57.5139 8.52432 57.9686 9.02132C58.4055 9.50572 58.6232 10.1308 58.6232 10.8961ZM57.4438 10.9322C57.4438 10.4596 57.3404 10.0567 57.1375 9.71822C56.8987 9.30932 56.5589 9.10472 56.1167 9.10472C55.6618 9.10472 55.3121 9.30932 55.0749 9.71822C54.8706 10.0567 54.7688 10.4674 54.7688 10.9519C54.7688 11.4245 54.8706 11.8302 55.0749 12.1687C55.3187 12.5762 55.6618 12.7808 56.1071 12.7808C56.5407 12.7808 56.8824 12.573 57.1276 12.1573C57.3371 11.8123 57.4438 11.4052 57.4438 10.9322Z" fill="#1D3448"/>
<path d="M67.1519 8.37842L65.5491 13.4951H64.5087L63.8447 11.2754C63.6776 10.7208 63.5402 10.1677 63.434 9.62171H63.4146C63.3144 10.1827 63.177 10.7337 63.0021 11.2754L62.2972 13.4951H61.2436L59.7388 8.37842H60.9084L61.4858 10.811C61.6268 11.3866 61.7424 11.933 61.8343 12.4532H61.8554C61.9406 12.0246 62.078 11.48 62.2776 10.8206L63.0021 8.37842H63.9278L64.6232 10.768C64.7935 11.3523 64.9305 11.9133 65.0335 12.4532H65.0649C65.1434 11.9265 65.2579 11.3655 65.4149 10.768L66.0367 8.37842H67.1519Z" fill="#1D3448"/>
<path d="M73.0474 13.4953H71.9108V10.5657C71.9108 9.66087 71.5669 9.21147 70.8782 9.21147C70.5412 9.21147 70.27 9.33567 70.0571 9.58257C69.8478 9.83297 69.7415 10.1238 69.7415 10.4611V13.4953H68.6045V9.84267C68.6045 9.39257 68.5916 8.90527 68.5635 8.37857H69.5619L69.6159 9.17857H69.6481C69.7791 8.92987 69.9769 8.72387 70.2371 8.56177C70.5447 8.37077 70.89 8.27197 71.2678 8.27197C71.7454 8.27197 72.1426 8.42907 72.4585 8.73667C72.8509 9.11447 73.0474 9.68237 73.0474 10.4316V13.4953Z" fill="#1D3448"/>
<path d="M76.186 13.4953H75.0464V6.02979H76.186V13.4953Z" fill="#1D3448"/>
<path d="M82.8819 10.8961C82.8819 11.6814 82.656 12.3275 82.2062 12.8313C81.737 13.3533 81.1116 13.6131 80.3318 13.6131C79.5808 13.6131 78.9837 13.363 78.5372 12.8642C78.0921 12.3669 77.8696 11.7386 77.8696 10.9798C77.8696 10.1862 78.0975 9.53692 78.5583 9.03172C79.018 8.52573 79.6363 8.27393 80.4184 8.27393C81.1676 8.27393 81.7726 8.52432 82.2273 9.02132C82.6628 9.50572 82.8819 10.1308 82.8819 10.8961ZM81.7025 10.9322C81.7025 10.4596 81.5993 10.0567 81.3966 9.71822C81.1574 9.30932 80.8177 9.10472 80.3758 9.10472C79.9209 9.10472 79.5712 9.30932 79.3318 9.71822C79.1293 10.0567 79.0275 10.4674 79.0275 10.9519C79.0275 11.4245 79.1293 11.8302 79.3318 12.1687C79.5774 12.5762 79.9209 12.7808 80.3628 12.7808C80.7995 12.7808 81.1411 12.573 81.3869 12.1573C81.5958 11.8123 81.7025 11.4052 81.7025 10.9322Z" fill="#1D3448"/>
<path d="M88.3877 13.4954H87.3655L87.2818 12.9068H87.2491C86.8974 13.3776 86.4002 13.6116 85.7555 13.6116C85.2696 13.6116 84.8789 13.4578 84.5843 13.1469C84.3177 12.8675 84.187 12.519 84.187 12.1068C84.187 11.4821 84.4469 11.0041 84.9719 10.6739C85.4921 10.3433 86.2285 10.183 87.1755 10.1895V10.0946C87.1755 9.42062 86.822 9.08392 86.1158 9.08392C85.6099 9.08392 85.165 9.21162 84.7805 9.46312L84.5501 8.71572C85.0276 8.42133 85.6099 8.27393 86.3032 8.27393C87.645 8.27393 88.3126 8.97912 88.3126 10.3909V12.2749C88.3126 12.7859 88.3383 13.1944 88.3877 13.4954ZM87.2063 11.7372V10.9483C85.9501 10.9275 85.3222 11.2724 85.3222 11.9809C85.3222 12.2474 85.3977 12.4452 85.5447 12.5794C85.6904 12.7122 85.8748 12.7787 86.0975 12.7787C86.3474 12.7787 86.5784 12.7004 86.7941 12.5433C87.007 12.3866 87.1376 12.1833 87.1852 11.9383C87.2002 11.8807 87.2063 11.8138 87.2063 11.7372Z" fill="#1D3448"/>
<path d="M94.8523 13.4952H93.8416L93.7877 12.6744H93.7565C93.4341 13.2991 92.8864 13.6129 92.1157 13.6129C91.4958 13.6129 90.9855 13.3695 90.5783 12.8851C90.1712 12.4011 89.9683 11.7728 89.9683 11.0007C89.9683 10.1714 90.1873 9.50195 90.6288 8.98855C91.0577 8.51135 91.5841 8.27376 92.2091 8.27376C92.8978 8.27376 93.3787 8.50455 93.6517 8.96885H93.6749V6.03076H94.8102V12.1163C94.8102 12.6154 94.8247 13.0748 94.8523 13.4952ZM93.6749 11.3377V10.4851C93.6749 10.3381 93.6633 10.2172 93.642 10.1271C93.5783 9.85405 93.441 9.62185 93.2281 9.43685C93.0173 9.25015 92.7651 9.15855 92.4678 9.15855C92.0452 9.15855 91.7118 9.32565 91.4696 9.66265C91.2245 10.0011 91.1032 10.4315 91.1032 10.9563C91.1032 11.4638 91.2209 11.876 91.4535 12.1899C91.7 12.527 92.0307 12.6952 92.4445 12.6952C92.8195 12.6952 93.1215 12.5546 93.3442 12.2733C93.5636 12.015 93.6749 11.7023 93.6749 11.3377Z" fill="#1D3448"/>
<path d="M104.582 10.8961C104.582 11.6814 104.356 12.3275 103.905 12.8313C103.437 13.3533 102.811 13.6131 102.033 13.6131C101.279 13.6131 100.682 13.363 100.237 12.8642C99.7923 12.3669 99.5698 11.7386 99.5698 10.9798C99.5698 10.1862 99.7988 9.53692 100.257 9.03172C100.718 8.52573 101.338 8.27393 102.115 8.27393C102.868 8.27393 103.47 8.52432 103.928 9.02132C104.363 9.50572 104.582 10.1308 104.582 10.8961ZM103.401 10.9322C103.401 10.4596 103.298 10.0567 103.095 9.71822C102.858 9.30932 102.514 9.10472 102.076 9.10472C101.618 9.10472 101.27 9.30932 101.032 9.71822C100.829 10.0567 100.726 10.4674 100.726 10.9519C100.726 11.4245 100.829 11.8302 101.032 12.1687C101.278 12.5762 101.621 12.7808 102.065 12.7808C102.498 12.7808 102.838 12.573 103.084 12.1573C103.296 11.8123 103.401 11.4052 103.401 10.9322Z" fill="#1D3448"/>
<path d="M110.697 13.4953H109.558V10.5657C109.558 9.66087 109.214 9.21147 108.528 9.21147C108.191 9.21147 107.915 9.33567 107.706 9.58257C107.497 9.83297 107.389 10.1238 107.389 10.4611V13.4953H106.254V9.84267C106.254 9.39257 106.237 8.90527 106.211 8.37857H107.212L107.265 9.17857H107.298C107.429 8.92987 107.624 8.72387 107.886 8.56177C108.194 8.37077 108.54 8.27197 108.917 8.27197C109.396 8.27197 109.793 8.42907 110.108 8.73667C110.5 9.11447 110.697 9.68237 110.697 10.4316V13.4953Z" fill="#1D3448"/>
<path d="M118.352 9.23076H117.099V11.7174C117.099 12.3485 117.318 12.664 117.763 12.664C117.966 12.664 118.133 12.6462 118.267 12.6118L118.3 13.474C118.074 13.5574 117.78 13.6018 117.415 13.6018C116.965 13.6018 116.615 13.4644 116.363 13.1914C116.111 12.9159 115.984 12.4583 115.984 11.8104V9.23076H115.234V8.37847H115.984V7.44107L117.099 7.10547V8.37847H118.352V9.23076Z" fill="#1D3448"/>
<path d="M124.372 13.4953H123.237V10.5869C123.237 9.66908 122.893 9.21148 122.202 9.21148C121.679 9.21148 121.316 9.47768 121.122 10.0079C121.084 10.1207 121.068 10.2581 121.068 10.4183V13.4953H119.931V6.02979H121.068V9.11448H121.091C121.447 8.55358 121.959 8.27198 122.625 8.27198C123.097 8.27198 123.485 8.42908 123.794 8.73668C124.179 9.12238 124.372 9.69517 124.372 10.4545V13.4953Z" fill="#1D3448"/>
<path d="M130.588 10.6952C130.588 10.8977 130.571 11.0709 130.545 11.2119H127.133C127.146 11.7175 127.31 12.1021 127.627 12.3682C127.915 12.6083 128.288 12.7267 128.742 12.7267C129.25 12.7267 129.708 12.6463 130.123 12.4845L130.299 13.2743C129.819 13.4841 129.245 13.5904 128.585 13.5904C127.794 13.5904 127.169 13.3564 126.716 12.892C126.266 12.4241 126.037 11.7976 126.037 11.0122C126.037 10.2402 126.246 9.59719 126.669 9.08379C127.113 8.53569 127.709 8.2627 128.458 8.2627C129.197 8.2627 129.754 8.53569 130.133 9.08379C130.434 9.51849 130.588 10.0566 130.588 10.6952ZM129.501 10.4004C129.508 10.0634 129.434 9.77209 129.279 9.52709C129.084 9.21149 128.782 9.05229 128.376 9.05229C128.003 9.05229 127.702 9.20609 127.467 9.51559C127.28 9.76279 127.169 10.0566 127.133 10.4004H129.501Z" fill="#1D3448"/>
</svg>
