<svg width="26" height="26" viewBox="0 0 26 26" fill="none" xmlns="http://www.w3.org/2000/svg">
<rect width="26" height="26" rx="6" fill="#0064FF"/>
<g clip-path="url(#clip0_180_1811)">
<path fill-rule="evenodd" clip-rule="evenodd" d="M13.4331 19.9332H9.48765C8.72157 19.9427 8.07642 19.4252 7.87974 18.689C7.30837 16.5396 6.73729 14.3921 6.16584 12.2427C5.77728 11.1666 6.5765 10.0286 7.71157 10.0286H13.4331H19.1545C20.2895 10.0286 21.0889 11.1666 20.7003 12.2427C20.1288 14.3921 19.5578 16.5396 18.9863 18.689C18.7898 19.4252 18.1444 19.9427 17.3786 19.9332H13.4332H13.4331ZM13.4331 14.9809H16.3921C16.3921 16.6219 15.0673 17.9524 13.4331 17.9524C11.7989 17.9524 10.474 16.6219 10.474 14.9809H13.4331Z" fill="white"/>
<path fill-rule="evenodd" clip-rule="evenodd" d="M10.4746 8.04758H12.4472C12.4472 6.95358 11.564 6.06665 10.4746 6.06665C9.38516 6.06665 8.50195 6.95358 8.50195 8.04758H10.4746Z" fill="white"/>
<path fill-rule="evenodd" clip-rule="evenodd" d="M16.3925 8.04758H18.3652C18.3652 6.95358 17.4819 6.06665 16.3925 6.06665C15.3031 6.06665 14.4199 6.95358 14.4199 8.04758H16.3925Z" fill="white"/>
</g>
<defs>
<clipPath id="clip0_180_1811">
<rect width="14.7333" height="13.8667" fill="white" transform="translate(6.06641 6.06665)"/>
</clipPath>
</defs>
</svg>
