<svg width="16" height="16" viewBox="0 0 16 16" fill="none" xmlns="http://www.w3.org/2000/svg">
<path d="M8.00008 1.33984C5.42941 1.33984 3.33862 3.43194 3.33862 6.0026C3.33862 8.99127 7.31642 13.8461 7.48576 14.0508L8.00008 14.6745L8.5144 14.0508C8.68374 13.8454 12.6615 8.99127 12.6615 6.0026C12.6615 3.43127 10.5707 1.33984 8.00008 1.33984ZM8.00008 2.67318C9.83541 2.67318 11.3282 4.16727 11.3282 6.0026C11.3282 7.80594 9.25208 10.9074 8.00008 12.5508C6.74808 10.9088 4.67196 7.8086 4.67196 6.0026C4.67196 4.16727 6.16475 2.67318 8.00008 2.67318ZM8.00008 4.33333C7.07941 4.33333 6.33341 5.07933 6.33341 6C6.33341 6.92067 7.07941 7.66667 8.00008 7.66667C8.92075 7.66667 9.66675 6.92067 9.66675 6C9.66675 5.07933 8.92075 4.33333 8.00008 4.33333Z" fill="black"/>
</svg>
