<svg width="168" height="35" viewBox="0 0 168 35" fill="none" xmlns="http://www.w3.org/2000/svg">
<g clip-path="url(#clip0_3_1839)">
<path d="M3.03877 9.79312V16.8575H8.70791V24.7612C8.70791 26.8245 6.91209 27.384 5.01076 27.384C3.60228 27.384 1.94737 27.0343 0.750092 26.5096V33.6439C2.2993 34.2734 4.72891 34.6931 7.1587 34.6931C11.9475 34.6931 16.8419 32.6647 16.8419 25.7754V9.7933H3.03896L3.03877 9.79312ZM73.0751 9.79312V34.2732H83.709C92.5472 34.2732 96.491 29.2024 96.491 22.0332C96.491 14.8639 92.5472 9.79312 83.709 9.79312H73.0751V9.79312ZM88.1458 22.0332C88.1458 26.0199 86.3852 27.4888 83.4978 27.4888H81.2091V16.5775H83.4978C86.385 16.5775 88.1458 18.0462 88.1458 22.0331V22.0332ZM104.238 34.2732L105.329 31.0209H113.85L114.907 34.2732H123.146L113.956 9.79312H105.223L95.9979 34.2732H104.238ZM108.921 19.9699C109.167 19.0605 109.413 18.0814 109.59 16.8225C109.766 18.0814 110.012 19.0605 110.294 19.9699L112.019 25.1807H107.195L108.921 19.9699ZM19.3418 22.0332C19.3418 29.0626 23.8136 34.8328 32.6869 34.8328C41.5603 34.8328 46.0322 29.0626 46.0322 22.0332C46.0322 15.0039 41.5603 9.23364 32.6869 9.23364C23.8136 9.23364 19.3418 15.0039 19.3418 22.0332V22.0332ZM37.6872 22.0332C37.6872 25.3905 35.8561 27.5238 32.6871 27.5238C29.518 27.5238 27.6869 25.3906 27.6869 22.0332C27.6869 18.676 29.518 16.5427 32.6871 16.5427C35.8561 16.5427 37.6872 18.676 37.6872 22.0332ZM61.9833 34.2732V25.9149L71.385 9.79312H62.1946L57.9692 19.0605L53.7438 9.79312H44.5534L53.9197 25.9149V34.2732H61.9833V34.2732Z" fill="white"/>
<path fill-rule="evenodd" clip-rule="evenodd" d="M149.54 34.2718H139.68C137.766 34.2955 136.153 33.0163 135.662 31.1968C134.234 25.8844 132.807 20.5766 131.379 15.2641C130.408 12.6044 132.405 9.79175 135.242 9.79175H149.54H163.838C166.675 9.79175 168.672 12.6044 167.701 15.2641C166.273 20.5766 164.846 25.8844 163.418 31.1968C162.927 33.0163 161.314 34.2955 159.4 34.2718H149.54H149.54ZM149.54 22.0319H156.935C156.935 26.0878 153.624 29.3761 149.54 29.3761C145.456 29.3761 142.145 26.0878 142.145 22.0319H149.54Z" fill="white"/>
<path fill-rule="evenodd" clip-rule="evenodd" d="M142.145 4.89605H147.075C147.075 2.19212 144.868 0 142.145 0C139.423 0 137.216 2.19212 137.216 4.89605H142.145Z" fill="white"/>
<path fill-rule="evenodd" clip-rule="evenodd" d="M156.934 4.89605H161.864C161.864 2.19212 159.657 0 156.934 0C154.212 0 152.005 2.19212 152.005 4.89605H156.934Z" fill="white"/>
</g>
<defs>
<clipPath id="clip0_3_1839">
<rect width="167.2" height="34.8333" fill="white" transform="translate(0.75)"/>
</clipPath>
</defs>
</svg>
