<svg width="28" height="28" viewBox="0 0 28 28" fill="none" xmlns="http://www.w3.org/2000/svg">
<path d="M4.95833 3.5C4.1629 3.5 3.5 4.1629 3.5 4.95833V7.875C3.5 8.67043 4.1629 9.33333 4.95833 9.33333H7.875C8.67043 9.33333 9.33333 8.67043 9.33333 7.875V4.95833C9.33333 4.1629 8.67043 3.5 7.875 3.5H4.95833ZM12.5417 3.5C11.7462 3.5 11.0833 4.1629 11.0833 4.95833V7.875C11.0833 8.67043 11.7462 9.33333 12.5417 9.33333H15.4583C16.2538 9.33333 16.9167 8.67043 16.9167 7.875V4.95833C16.9167 4.1629 16.2538 3.5 15.4583 3.5H12.5417ZM20.125 3.5C19.3296 3.5 18.6667 4.1629 18.6667 4.95833V7.875C18.6667 8.67043 19.3296 9.33333 20.125 9.33333H23.0417C23.8371 9.33333 24.5 8.67043 24.5 7.875V4.95833C24.5 4.1629 23.8371 3.5 23.0417 3.5H20.125ZM5.25 5.25H7.58333V7.58333H5.25V5.25ZM12.8333 5.25H15.1667V7.58333H12.8333V5.25ZM20.4167 5.25H22.75V7.58333H20.4167V5.25ZM4.95833 11.0833C4.1629 11.0833 3.5 11.7462 3.5 12.5417V15.4583C3.5 16.2538 4.1629 16.9167 4.95833 16.9167H7.875C8.67043 16.9167 9.33333 16.2538 9.33333 15.4583V12.5417C9.33333 11.7462 8.67043 11.0833 7.875 11.0833H4.95833ZM12.5417 11.0833C11.7462 11.0833 11.0833 11.7462 11.0833 12.5417V15.4583C11.0833 16.2538 11.7462 16.9167 12.5417 16.9167H15.4583C16.2538 16.9167 16.9167 16.2538 16.9167 15.4583V12.5417C16.9167 11.7462 16.2538 11.0833 15.4583 11.0833H12.5417ZM20.125 11.0833C19.3296 11.0833 18.6667 11.7462 18.6667 12.5417V15.4583C18.6667 16.2538 19.3296 16.9167 20.125 16.9167H23.0417C23.8371 16.9167 24.5 16.2538 24.5 15.4583V12.5417C24.5 11.7462 23.8371 11.0833 23.0417 11.0833H20.125ZM5.25 12.8333H7.58333V15.1667H5.25V12.8333ZM12.8333 12.8333H15.1667V15.1667H12.8333V12.8333ZM20.4167 12.8333H22.75V15.1667H20.4167V12.8333ZM4.95833 18.6667C4.1629 18.6667 3.5 19.3296 3.5 20.125V23.0417C3.5 23.8371 4.1629 24.5 4.95833 24.5H7.875C8.67043 24.5 9.33333 23.8371 9.33333 23.0417V20.125C9.33333 19.3296 8.67043 18.6667 7.875 18.6667H4.95833ZM12.5417 18.6667C11.7462 18.6667 11.0833 19.3296 11.0833 20.125V23.0417C11.0833 23.8371 11.7462 24.5 12.5417 24.5H15.4583C16.2538 24.5 16.9167 23.8371 16.9167 23.0417V20.125C16.9167 19.3296 16.2538 18.6667 15.4583 18.6667H12.5417ZM20.125 18.6667C19.3296 18.6667 18.6667 19.3296 18.6667 20.125V23.0417C18.6667 23.8371 19.3296 24.5 20.125 24.5H23.0417C23.8371 24.5 24.5 23.8371 24.5 23.0417V20.125C24.5 19.3296 23.8371 18.6667 23.0417 18.6667H20.125ZM5.25 20.4167H7.58333V22.75H5.25V20.4167ZM12.8333 20.4167H15.1667V22.75H12.8333V20.4167ZM20.4167 20.4167H22.75V22.75H20.4167V20.4167Z" fill="#1D3448"/>
</svg>
