<svg width="14" height="14" viewBox="0 0 14 14" fill="none" xmlns="http://www.w3.org/2000/svg">
<path fill-rule="evenodd" clip-rule="evenodd" d="M4.44808 9.55266C7.01141 12.116 9.38675 12.3967 10.0841 12.4227C10.9267 12.4533 11.7867 11.7653 12.1587 11.0607C11.5654 10.3647 10.7927 9.82466 9.94608 9.23932C9.44741 9.73799 8.83275 10.6647 8.01275 10.3327C7.54675 10.1453 6.39608 9.61532 5.39075 8.60932C4.38475 7.60399 3.85541 6.45332 3.66675 5.98799C3.33475 5.16733 4.26408 4.55066 4.76341 4.05132C4.17808 3.19132 3.64741 2.39866 2.95275 1.83532C2.23808 2.20866 1.54608 3.06199 1.57741 3.91599C1.60341 4.61332 1.88408 6.98866 4.44808 9.55266ZM10.0347 13.7547C9.07475 13.7193 6.35408 13.344 3.50475 10.4947C0.656081 7.64599 0.280748 4.92599 0.244748 3.96532C0.191415 2.50132 1.31275 1.07932 2.60808 0.523991C2.76407 0.456636 2.93488 0.430991 3.10377 0.449575C3.27265 0.468158 3.43381 0.53033 3.57141 0.629991C4.64341 1.41199 5.38275 2.59666 6.01808 3.52466C6.15025 3.71763 6.21079 3.95073 6.18925 4.18362C6.1677 4.41652 6.06541 4.63455 5.90008 4.79999L4.99608 5.70466C5.20608 6.16799 5.63341 6.96666 6.33341 7.66666C7.03341 8.36666 7.83208 8.79399 8.29608 9.00399L9.19941 8.09999C9.36549 7.93432 9.58444 7.83216 9.81809 7.81133C10.0518 7.7905 10.2853 7.85231 10.4781 7.98599C11.4247 8.64199 12.5367 9.37066 13.3474 10.4087C13.4552 10.5473 13.5237 10.7123 13.5459 10.8864C13.568 11.0606 13.543 11.2375 13.4734 11.3987C12.9154 12.7007 11.5034 13.8093 10.0347 13.7553V13.7547Z" fill="#1D3448"/>
</svg>
