<svg width="144" height="42" viewBox="0 0 144 42" fill="none" xmlns="http://www.w3.org/2000/svg">
<path d="M144 37.8209C144 40.1592 142.16 42 139.866 42H4.03632C1.74231 42 0 40.2143 0 37.8757V4.1178C0 1.77883 1.74201 0 4.03632 0H139.866C142.16 0 143.98 1.77883 143.98 4.1178V37.8757L144 37.8209Z" fill="white"/>
<path d="M49.729 10.1907C49.729 11.0866 49.4639 11.8 48.9324 12.332C48.3288 12.965 47.5424 13.2815 46.5755 13.2815C45.6496 13.2815 44.8619 12.9607 44.2146 12.3189C43.566 11.6765 43.2422 10.8802 43.2422 9.93045C43.2422 8.98039 43.566 8.18445 44.2146 7.54231C44.8619 6.90017 45.6496 6.5791 46.5755 6.5791C47.0351 6.5791 47.4748 6.669 47.8925 6.84819C48.3102 7.02768 48.645 7.26619 48.8958 7.56463L48.3319 8.1291C47.9069 7.62181 47.3222 7.36801 46.5755 7.36801C45.9003 7.36801 45.316 7.6053 44.8231 8.08017C44.3302 8.55536 44.0837 9.17212 44.0837 9.93045C44.0837 10.6891 44.3302 11.3055 44.8231 11.781C45.316 12.2559 45.9 12.4932 46.5755 12.4932C47.2916 12.4932 47.8891 12.2547 48.3674 11.7764C48.6777 11.4655 48.8572 11.0328 48.9052 10.4772H46.5752V9.70662H49.6841C49.714 9.87388 49.7287 10.035 49.7287 10.1907H49.729Z" fill="#1D3448"/>
<path d="M49.7293 10.1906H49.6226C49.6216 11.0661 49.366 11.7461 48.8572 12.2565L48.856 12.2574L48.8554 12.258C48.2713 12.869 47.52 13.1732 46.5758 13.1747C45.6743 13.1732 44.92 12.8659 44.2901 12.2427C43.6617 11.6183 43.3507 10.856 43.3495 9.93042C43.3507 9.00452 43.6617 8.24282 44.2901 7.61872C44.92 6.99524 45.6743 6.68732 46.5758 6.68609C47.0213 6.68609 47.4457 6.77324 47.8506 6.94631C48.2554 7.12091 48.5756 7.34964 48.8141 7.63401L48.896 7.5649L48.8205 7.48938L48.2563 8.05415L48.3322 8.12937L48.4141 8.06088C47.9698 7.52852 47.3457 7.25974 46.5755 7.26126C45.8749 7.26035 45.2588 7.51078 44.7493 8.0037C44.235 8.49845 43.9763 9.14946 43.9769 9.93103C43.9763 10.7126 44.235 11.3639 44.7493 11.8587C45.2588 12.3516 45.8749 12.6017 46.5755 12.6008C47.3158 12.6023 47.9466 12.351 48.4429 11.8532C48.7743 11.5208 48.9627 11.06 49.0119 10.4869L49.022 10.3707H46.6825V9.81392H49.6843V9.7072L49.5788 9.72585C49.6082 9.88791 49.6223 10.042 49.6223 10.1912H49.836C49.836 10.0289 49.821 9.86162 49.7898 9.68793L49.7739 9.60017H46.4684V10.5848H48.9055V10.4778L48.7988 10.4686C48.7517 11.0065 48.5802 11.4119 48.2918 11.7018C47.8322 12.1596 47.2684 12.3855 46.5755 12.3867C45.9251 12.3858 45.3734 12.162 44.8973 11.7049C44.4264 11.2489 44.1919 10.6673 44.1907 9.93103C44.1919 9.19502 44.4261 8.61342 44.8973 8.15751C45.3731 7.70006 45.9248 7.47653 46.5755 7.47562C47.2983 7.47715 47.8444 7.71626 48.2502 8.19848L48.3254 8.28807L48.9719 7.64104L49.041 7.57163L48.978 7.49672C48.7153 7.1836 48.3655 6.935 47.935 6.75061C47.5038 6.56531 47.0488 6.47266 46.5758 6.47266C45.6251 6.47174 44.8047 6.80626 44.1393 7.46705C43.4712 8.12723 43.1348 8.95681 43.1357 9.93103C43.1348 10.9052 43.4715 11.7351 44.1396 12.3956C44.8047 13.0564 45.6251 13.39 46.5758 13.3891C47.5656 13.39 48.3869 13.061 49.0101 12.4066L48.9327 12.3326L49.0086 12.4085C49.5623 11.855 49.8372 11.1074 49.8363 10.1912H49.7293V10.1906Z" fill="#1D3448"/>
<path d="M54.6576 7.51047H51.7359V9.54482H54.3705V10.3157H51.7359V12.3497H54.6576V13.138H50.9121V6.72217H54.6576V7.51047Z" fill="#1D3448"/>
<path d="M54.6577 7.51056V7.40384H51.6289V9.65163H54.2639V10.2085L51.6289 10.2088V12.4569H54.5507V13.0311H51.0192V6.82928H54.5507V7.51056H54.6577V7.40384V7.51056H54.7647V6.61523H50.8052V13.2448H54.7647V12.2431H51.8427V10.4228H54.4776V9.43789H51.8427V7.61758H54.7647V7.51056H54.6577Z" fill="#1D3448"/>
<path d="M58.1341 13.138H57.3094V7.51047H55.5176V6.72217H59.9263V7.51047H58.1341V13.138Z" fill="#1D3448"/>
<path d="M58.1337 13.1381V13.0311H57.4161V7.40384H55.6242V6.82928H59.8192V7.40384H58.027V13.1381H58.1337V13.0311V13.1381H58.2408V7.61758H60.0329V6.61523H55.4102V7.61758H57.202V13.2448H58.2408V13.1381H58.1337Z" fill="#1D3448"/>
<path d="M63.1162 13.138H63.9403V6.72217H63.1162V13.138Z" fill="#1D3448"/>
<path d="M63.116 13.1381H63.223V6.82928H63.8331V13.0311H63.116V13.1381H63.223H63.116V13.2448H64.0471V6.61523H63.0093V13.2448H63.116V13.1381Z" fill="#1D3448"/>
<path d="M67.5973 13.138H66.772V7.51047H64.9805V6.72217H69.3892V7.51047H67.5973V13.138Z" fill="#1D3448"/>
<path d="M67.5969 13.1381V13.0311H66.8787V7.40384H65.0868V6.82928H69.2818V7.40384H67.4899V13.1381H67.5969V13.0311V13.1381H67.704V7.61758H69.4958V6.61523H64.873V7.61758H66.6646V13.2448H67.704V13.1381H67.5969Z" fill="#1D3448"/>
<path d="M73.6394 11.7722C74.114 12.2528 74.6953 12.4932 75.3824 12.4932C76.0695 12.4932 76.6507 12.2528 77.125 11.7722C77.6005 11.2915 77.8384 10.6772 77.8384 9.93045C77.8384 9.18435 77.6005 8.56973 77.125 8.08874C76.6511 7.60805 76.0695 7.36801 75.3824 7.36801C74.6953 7.36801 74.1143 7.60805 73.6394 8.08874C73.1652 8.56973 72.9273 9.18435 72.9273 9.93045C72.9273 10.6772 73.1652 11.2915 73.6394 11.7722ZM77.7347 12.3091C77.1039 12.9577 76.3196 13.2815 75.3824 13.2815C74.4442 13.2815 73.6602 12.9577 73.0309 12.3091C72.3998 11.6615 72.0854 10.868 72.0854 9.93045C72.0854 8.99293 72.3998 8.19974 73.0309 7.55179C73.6602 6.90323 74.4442 6.5791 75.3824 6.5791C76.3147 6.5791 77.0972 6.90506 77.7308 7.55607C78.3634 8.20738 78.6802 8.99874 78.6802 9.93045C78.6802 10.8683 78.3643 11.6615 77.7347 12.3091Z" fill="#1D3448"/>
<path d="M73.6392 11.7719L73.5631 11.8472C74.0557 12.3471 74.67 12.6012 75.3822 12.5997C76.0937 12.6012 76.7092 12.3471 77.2006 11.8472C77.6966 11.3466 77.9458 10.6993 77.9452 9.93024C77.9458 9.16151 77.6966 8.51386 77.2006 8.0133C76.7089 7.51335 76.0937 7.25955 75.3822 7.26078C74.6703 7.25955 74.0557 7.51366 73.5631 8.0133C73.0686 8.51386 72.8188 9.16151 72.8197 9.93024C72.8185 10.6993 73.0683 11.3466 73.5631 11.8472L73.6392 11.7719L73.715 11.6967C73.2616 11.235 73.035 10.6546 73.0341 9.93024C73.035 9.20615 73.2619 8.62547 73.715 8.16375C74.1731 7.70232 74.7195 7.47605 75.3822 7.47482C76.0442 7.47605 76.5921 7.70263 77.049 8.16375C77.5033 8.62547 77.7299 9.20615 77.7308 9.93024C77.7299 10.6546 77.5033 11.235 77.049 11.6967C76.5921 12.1585 76.0442 12.3847 75.3822 12.386C74.7195 12.3847 74.1731 12.1585 73.715 11.6967L73.6392 11.7719ZM77.7345 12.3089L77.6581 12.2346C77.045 12.863 76.2955 13.173 75.3822 13.1746C74.4685 13.173 73.719 12.863 73.1071 12.2346L73.1041 12.2312L73.1071 12.2346C72.4953 11.6041 72.1932 10.8442 72.1923 9.93024C72.1932 9.01626 72.495 8.25609 73.1071 7.62618C73.719 6.99781 74.4688 6.68713 75.3822 6.68591C76.2894 6.68713 77.0373 6.99903 77.6541 7.63077C78.2681 8.26404 78.5717 9.02299 78.573 9.93054C78.5717 10.8448 78.269 11.6047 77.6581 12.2349L77.7345 12.3092L77.8116 12.3835C78.4598 11.7178 78.7876 10.8922 78.787 9.93054C78.7876 8.97467 78.4583 8.1506 77.8073 7.48186C77.1557 6.81036 76.3396 6.47095 75.3822 6.47217C74.4199 6.47095 73.601 6.80883 72.9536 7.47758V7.47727C72.3045 8.14356 71.9776 8.96917 71.9785 9.93054C71.9776 10.8922 72.3042 11.7178 72.9536 12.3841L72.9567 12.3872L72.9536 12.3835C73.601 13.0526 74.4199 13.3895 75.3822 13.3886C76.3441 13.3895 77.163 13.0526 77.8116 12.3835L77.7345 12.3092V12.3089Z" fill="#1D3448"/>
<path d="M79.8374 13.138V6.72217H80.8407L83.9587 11.7134H83.9942L83.9587 10.4768V6.72217H84.7837V13.138H83.9232L80.6609 7.90492H80.6254L80.6609 9.14211V13.138H79.8374Z" fill="#1D3448"/>
<path d="M79.8375 13.1381H79.9445V6.82928H80.7814L83.8992 11.8202H84.1043L84.0658 10.4754V6.82928H84.6768V13.0311H83.9826L80.7203 7.7983H80.5157L80.5542 9.14373V13.0311H79.8375V13.1381H79.9445H79.8375V13.2448H80.768V9.14037L80.7325 7.90226L80.6255 7.90501V8.01204H80.661V7.90501L80.5704 7.9622L83.864 13.2448H84.8908V6.61523H83.8518V10.4782L83.8872 11.7163L83.9943 11.7135V11.6068H83.9588V11.7135L84.0493 11.6566L80.9001 6.61523H79.7305V13.2448H79.8375V13.1381Z" fill="#1D3448"/>
<path d="M113.371 31.3164H115.366V17.9486H113.371V31.3164ZM131.343 22.7644L129.056 28.5598H128.987L126.613 22.7644H124.464L128.024 30.8648L125.995 35.3705H128.076L133.562 22.7644H131.343H131.343ZM120.028 29.7982C119.373 29.7982 118.462 29.4714 118.462 28.6629C118.462 27.6312 119.597 27.2358 120.577 27.2358C121.455 27.2358 121.867 27.4248 122.4 27.6832C122.245 28.9209 121.179 29.7982 120.028 29.7982ZM120.268 22.4717C118.823 22.4717 117.328 23.1084 116.708 24.5183L118.479 25.258C118.858 24.5183 119.562 24.2774 120.302 24.2774C121.334 24.2774 122.383 24.8969 122.4 25.9977V26.135C122.038 25.9289 121.266 25.6194 120.319 25.6194C118.411 25.6194 116.466 26.6683 116.466 28.6286C116.466 30.4171 118.032 31.5696 119.785 31.5696C121.127 31.5696 121.866 30.9678 122.332 30.2627H122.4V31.2944H124.326V26.1692C124.326 23.7967 122.555 22.472 120.268 22.472V22.4717ZM107.937 24.3914H105.099V19.8093H107.937C109.428 19.8093 110.275 21.0444 110.275 22.1005C110.275 23.1362 109.428 24.3914 107.937 24.3914ZM107.886 17.949H103.105V31.3167H105.099V26.2521H107.886C110.097 26.2521 112.271 24.651 112.271 22.1008C112.271 19.5506 110.097 17.9493 107.886 17.9493V17.949ZM81.8152 29.8007C80.4367 29.8007 79.2827 28.6464 79.2827 27.0615C79.2827 25.4595 80.4367 24.2881 81.8152 24.2881C83.1762 24.2881 84.244 25.4595 84.244 27.0615C84.244 28.6464 83.1762 29.8007 81.8152 29.8007ZM84.1064 23.5126H84.0373C83.5896 22.9787 82.728 22.4962 81.6427 22.4962C79.369 22.4962 77.2845 24.4945 77.2845 27.0612C77.2845 29.6105 79.369 31.5919 81.6427 31.5919C82.728 31.5919 83.5896 31.1097 84.0373 30.5587H84.1064V31.2134C84.1064 32.9536 83.1762 33.8834 81.6773 33.8834C80.4542 33.8834 79.6961 33.0046 79.3858 32.2643L77.6462 32.9878C78.1458 34.1935 79.4723 35.675 81.6773 35.675C84.0205 35.675 86.0016 34.2966 86.0016 30.9376V22.772H84.1067V23.5126H84.1064ZM87.3792 31.3164H89.3771V17.9483H87.3792V31.3164ZM92.3233 26.9065C92.2717 25.1492 93.684 24.2538 94.7005 24.2538C95.4933 24.2538 96.1651 24.6498 96.3884 25.2186L92.3233 26.9065ZM98.5248 25.3907C98.1463 24.3737 96.9914 22.4962 94.6314 22.4962C92.2885 22.4962 90.3422 24.3398 90.3422 27.0441C90.3422 29.594 92.2713 31.5919 94.8552 31.5919C96.94 31.5919 98.1463 30.3174 98.6456 29.5765L97.0953 28.543C96.5789 29.301 95.8719 29.8007 94.8552 29.8007C93.8388 29.8007 93.1156 29.3353 92.6505 28.4228L98.7309 25.9075L98.5248 25.391V25.3907ZM50.0768 23.8918V25.8209H54.6934C54.5558 26.9065 54.1938 27.6987 53.6428 28.2501C52.9713 28.9222 51.9203 29.6625 50.0771 29.6625C47.2346 29.6625 45.0125 27.3716 45.0125 24.529C45.0125 21.6868 47.2346 19.3953 50.0771 19.3953C51.6106 19.3953 52.7297 19.9986 53.5569 20.7734L54.9179 19.4127C53.7639 18.3101 52.2307 17.4658 50.0774 17.4658C46.1839 17.4658 42.9111 20.6355 42.9111 24.5287C42.9111 28.4222 46.1842 31.5916 50.0774 31.5916C52.1793 31.5916 53.7642 30.903 55.0041 29.6105C56.2789 28.336 56.6755 26.5444 56.6755 25.0975C56.6755 24.6492 56.6413 24.2361 56.5718 23.8915H50.0774L50.0768 23.8918ZM61.9233 29.8007C60.5451 29.8007 59.3563 28.6638 59.3563 27.0441C59.3563 25.4075 60.5448 24.2881 61.9233 24.2881C63.3011 24.2881 64.49 25.4075 64.49 27.0441C64.49 28.6635 63.3011 29.8007 61.9233 29.8007ZM61.9233 22.4965C59.408 22.4965 57.358 24.4089 57.358 27.0444C57.358 29.6631 59.408 31.5922 61.9233 31.5922C64.4383 31.5922 66.4883 29.6631 66.4883 27.0444C66.4883 24.4089 64.438 22.4965 61.9233 22.4965ZM71.8819 29.8007C70.5041 29.8007 69.3152 28.6638 69.3152 27.0441C69.3152 25.4075 70.5041 24.2881 71.8819 24.2881C73.2598 24.2881 74.4487 25.4075 74.4487 27.0441C74.4487 28.6635 73.2598 29.8007 71.8819 29.8007ZM71.8819 22.4965C69.3666 22.4965 67.3173 24.4089 67.3173 27.0444C67.3173 29.6631 69.3669 31.5922 71.8819 31.5922C74.397 31.5922 76.4469 29.6631 76.4469 27.0444C76.4469 24.4089 74.3967 22.4965 71.8819 22.4965Z" fill="#1D3448"/>
<path d="M10.2783 7.6875C10.211 7.79055 10.1544 7.9098 10.1104 8.04435C10.0388 8.26145 10 8.51739 10 8.8088V32.4379C10 32.7293 10.0388 32.9853 10.1104 33.2024C10.1547 33.3372 10.2113 33.4568 10.278 33.5598L23.1868 20.6507V20.5963L10.2783 7.6875Z" fill="#1D3448"/>
<path fill-rule="evenodd" clip-rule="evenodd" d="M23.8099 20.652L27.9624 24.8063L33.0848 21.8956C33.4759 21.6733 33.748 21.4155 33.9012 21.1455C33.9982 20.9752 34.0465 20.7985 34.0465 20.6233C34.0465 20.448 33.9979 20.2713 33.9012 20.101C33.748 19.8313 33.4759 19.5732 33.0848 19.3509L27.9642 16.4414L23.8096 20.596V20.6517L23.8099 20.652Z" fill="#1D3448"/>
<path fill-rule="evenodd" clip-rule="evenodd" d="M27.5023 25.0678L23.4984 21.064L10.6489 33.9141C10.7997 33.9997 10.974 34.0468 11.1654 34.0526C11.4837 34.0618 11.8525 33.9602 12.25 33.7343L27.5026 25.0678H27.5023Z" fill="#1D3448"/>
<path fill-rule="evenodd" clip-rule="evenodd" d="M27.5021 16.1787L12.2495 7.51197C11.852 7.28631 11.4832 7.18448 11.1649 7.19396C10.9735 7.19947 10.7995 7.24686 10.6484 7.33248L23.4982 20.1826L27.5021 16.1787Z" fill="#1D3448"/>
</svg>
