<svg width="100" height="34" viewBox="0 0 100 34" fill="none" xmlns="http://www.w3.org/2000/svg">
<g clip-path="url(#clip0_32_54)">
<path fill-rule="evenodd" clip-rule="evenodd" d="M32.8368 8.13908C31.3175 5.75629 29.2048 3.76066 26.6968 2.342C24.0656 0.854 20.9957 0.00012207 17.715 0.00012207C14.4345 0.00012207 11.3645 0.853811 8.73344 2.342C6.22529 3.76057 4.1127 5.75629 2.59326 8.13898C5.35285 9.05521 7.54301 11.125 8.55279 13.7353C9.04788 12.4557 9.82523 11.308 10.8127 10.3623C12.581 8.66833 15.0212 7.62087 17.715 7.62087C20.4097 7.62087 22.8508 8.66899 24.6191 10.3638C25.6054 11.3092 26.3824 12.4561 26.8771 13.7345C27.8891 11.1161 30.0815 9.05578 32.8368 8.13908Z" fill="white"/>
<path fill-rule="evenodd" clip-rule="evenodd" d="M26.2669 21.5424C25.8223 22.3123 25.2684 23.0155 24.6253 23.6328C22.8567 25.3297 20.4133 26.3792 17.7151 26.3792C15.0162 26.3792 12.5728 25.3294 10.8043 23.632C9.03562 21.9347 7.94167 19.5898 7.94167 17C7.94167 13.4188 5.53315 10.2677 1.98322 9.17456C1.37541 10.2972 0.894492 11.4917 0.558687 12.7407C0.194332 14.0957 0.000488281 15.523 0.000488281 17.0001C0.000488281 21.6945 1.98332 25.9446 5.18898 29.0209C8.39463 32.0972 12.8233 34 17.7151 34C20.0345 34 22.2337 33.1119 23.8532 31.5171C25.3549 30.0385 26.2783 28.0199 26.2693 25.7954L26.2668 21.5425L26.2669 21.5424Z" fill="white"/>
<path fill-rule="evenodd" clip-rule="evenodd" d="M35.4298 17C35.4298 15.5229 35.2359 14.0956 34.8715 12.7406C34.5361 11.4918 34.0552 10.2971 33.447 9.17456C29.9118 10.2527 27.4951 13.4164 27.4864 16.9786V25.793C27.4967 28.4929 26.2886 31.0553 24.1743 32.8353C26.5046 31.9593 28.5948 30.6232 30.3231 28.9433C33.4807 25.8739 35.4297 21.6561 35.4297 17H35.4298Z" fill="white"/>
<path fill-rule="evenodd" clip-rule="evenodd" d="M50.5673 26.4465C52.8192 26.4465 54.669 25.9321 56.0899 24.8772C57.5108 23.8225 58.2344 22.4332 58.2344 20.6581C58.2344 19.1145 57.725 17.9052 56.7063 17.0563C55.6876 16.2074 54.2669 15.487 52.4706 14.9211C51.6933 14.6895 50.4599 14.3808 49.8972 14.2007L49.0393 13.9177C48.4764 13.6863 48.2618 13.4289 48.2618 13.0944C48.2618 12.297 49.0929 11.9111 50.7283 11.9111C51.8006 11.9111 52.8997 12.091 54.0525 12.4256C55.2052 12.76 56.197 13.1717 57.0281 13.6605V9.20969C55.0709 8.20635 52.9531 7.71753 50.6744 7.71753C46.1707 7.71753 43.3021 9.64693 43.3021 13.1203C43.3021 14.175 43.6237 15.1269 43.9724 15.7701C44.3745 16.4132 45.2592 17.0306 45.7954 17.4166C46.0903 17.5966 46.4924 17.7768 47.0285 17.9826L48.2616 18.4456L49.6289 18.8315L51.3178 19.3204C51.6394 19.4233 52.3097 19.6034 52.5242 19.7835C52.953 20.0664 53.248 20.2979 53.248 20.8382C53.248 21.7901 52.283 22.2532 50.3794 22.2532C49.173 22.2532 47.8864 22.0216 46.5191 21.5329C45.152 21.044 44.0795 20.4781 43.302 19.7835V24.5172C45.2591 25.8036 47.6719 26.4466 50.5671 26.4466L50.5673 26.4465Z" fill="white"/>
<path fill-rule="evenodd" clip-rule="evenodd" d="M92.9375 26.0916C94.9481 26.0916 96.5836 25.6286 97.7899 24.6767C99.0231 23.7247 99.6397 22.4642 99.6397 20.9206C99.6397 19.6087 99.2644 18.5537 98.5405 17.7048C97.8168 16.8558 96.9857 16.3412 96.0743 16.1354C97.227 15.621 98.2724 14.386 98.2724 12.6366C98.2724 9.67805 95.8598 8.08301 92.4285 8.08301H83.2871V26.0916H92.9377H92.9375ZM88.1121 18.3995H91.9992C93.4201 18.3995 94.3583 19.1198 94.3583 20.3289C94.3583 21.5381 93.4737 22.2326 91.9992 22.2326H88.1121V18.3995ZM88.1121 11.8392H91.7045C92.884 11.8392 93.6347 12.4309 93.6347 13.4342C93.6347 14.3861 92.884 14.9778 91.7045 14.9778H88.1121V11.8392Z" fill="white"/>
<path fill-rule="evenodd" clip-rule="evenodd" d="M76.3772 30.7426C77.4832 30.7426 78.4815 30.5355 79.3987 30.1472V26.2894C78.7244 26.6519 77.9688 26.8331 77.1596 26.8331C76.1074 26.8331 75.2441 26.4707 74.5966 25.7199C76.3501 24.969 77.7263 23.804 78.7514 22.2763C79.7764 20.7488 80.2893 19.0399 80.2893 17.1499C80.2893 14.535 79.3448 12.3084 77.4563 10.47C75.5679 8.63171 73.1936 7.72559 70.3338 7.72559C67.4741 7.72559 65.1 8.6318 63.2114 10.47C61.3229 12.3084 60.3784 14.5349 60.3784 17.1499C60.3784 19.6095 61.2149 21.7585 62.9146 23.5449C64.6144 25.3314 66.7726 26.3153 69.3896 26.5224C72.0067 29.6294 74.111 30.7426 76.3772 30.7426ZM66.7725 20.8264C65.8283 19.8685 65.3695 18.6258 65.3695 17.15C65.3695 15.6742 65.8283 14.4314 66.7725 13.4735C67.7168 12.5155 68.904 12.0238 70.3337 12.0238C71.7637 12.0238 72.9237 12.5156 73.868 13.4735C74.8124 14.4315 75.298 15.6742 75.298 17.15C75.298 18.6258 74.8124 19.8685 73.868 20.8264C72.9236 21.7844 71.7636 22.2763 70.3337 22.2763C68.9039 22.2763 67.7167 21.7843 66.7725 20.8264Z" fill="white"/>
</g>
<defs>
<clipPath id="clip0_32_54">
<rect width="99.6389" height="34" fill="white" transform="translate(0.000244141)"/>
</clipPath>
</defs>
</svg>
