<svg width="211" height="72" viewBox="0 0 211 72" fill="none" xmlns="http://www.w3.org/2000/svg">
<path fill-rule="evenodd" clip-rule="evenodd" d="M69.5353 17.2357C66.3181 12.1898 61.844 7.96374 56.533 4.95952C50.961 1.80846 44.4601 0.000244141 37.5128 0.000244141C30.5657 0.000244141 24.0645 1.80806 18.493 4.95952C13.1816 7.96354 8.70788 12.1898 5.49023 17.2355C11.3341 19.1757 15.9721 23.5588 18.1104 29.0865C19.1588 26.3768 20.805 23.9464 22.896 21.9437C26.6407 18.3565 31.8082 16.1383 37.5128 16.1383C43.2192 16.1383 48.3886 18.3579 52.1331 21.9469C54.2218 23.9489 55.8671 26.3776 56.9147 29.0849C59.0579 23.54 63.7007 19.1769 69.5353 17.2357Z" fill="white"/>
<path fill-rule="evenodd" clip-rule="evenodd" d="M55.623 45.6191C54.6815 47.2495 53.5084 48.7386 52.1467 50.0458C48.4014 53.6393 43.2272 55.8618 37.5132 55.8618C31.798 55.8618 26.6238 53.6387 22.8787 50.0442C19.1332 46.45 16.8166 41.4843 16.8166 36.0001C16.8166 28.4163 11.7162 21.7435 4.19874 19.4285C2.9116 21.8059 1.89318 24.3353 1.18207 26.9802C0.410492 29.8498 0 32.8722 0 36.0003C0 45.9412 4.19894 54.9415 10.9874 61.4561C17.7758 67.9705 27.1542 72.0001 37.5132 72.0001C42.4249 72.0001 47.0821 70.1192 50.5116 66.7421C53.6917 63.6108 55.6472 59.3362 55.628 54.6256L55.6228 45.6193L55.623 45.6191Z" fill="white"/>
<path fill-rule="evenodd" clip-rule="evenodd" d="M75.0266 36.0001C75.0266 32.872 74.6159 29.8496 73.8444 26.98C73.1341 24.3355 72.1157 21.8057 70.8277 19.4285C63.3413 21.7116 58.2236 28.4111 58.2052 35.9547V54.6204C58.2271 60.3379 55.6687 65.7642 51.1914 69.5336C56.1261 67.6784 60.5525 64.849 64.2123 61.2916C70.899 54.7918 75.0264 45.86 75.0264 36.0001H75.0266Z" fill="white"/>
<path fill-rule="evenodd" clip-rule="evenodd" d="M107.083 56.0044C111.851 56.0044 115.768 54.9151 118.777 52.6811C121.786 50.4476 123.319 47.5056 123.319 43.7465C123.319 40.4778 122.24 37.9169 120.083 36.1193C117.926 34.3215 114.917 32.796 111.113 31.5976C109.467 31.1072 106.855 30.4534 105.664 30.0721L103.847 29.4729C102.655 28.9827 102.2 28.4377 102.2 27.7293C102.2 26.0407 103.96 25.2234 107.424 25.2234C109.694 25.2234 112.022 25.6046 114.463 26.313C116.904 27.0212 119.004 27.8929 120.764 28.9281V19.5029C116.62 17.3782 112.135 16.343 107.31 16.343C97.7721 16.343 91.6975 20.4288 91.6975 27.7841C91.6975 30.0176 92.3786 32.0335 93.117 33.3956C93.9684 34.7574 95.842 36.0649 96.9774 36.8822C97.602 37.2635 98.4534 37.645 99.5888 38.0808L102.2 39.0613L105.095 39.8786L108.672 40.9137C109.353 41.1316 110.772 41.5131 111.227 41.8945C112.135 42.4937 112.759 42.9838 112.759 44.128C112.759 46.1437 110.716 47.1244 106.685 47.1244C104.13 47.1244 101.405 46.6341 98.5099 45.5991C95.615 44.5638 93.3438 43.3654 91.6973 41.8945V51.9189C95.8418 54.643 100.951 56.0046 107.082 56.0046L107.083 56.0044Z" fill="white"/>
<path fill-rule="evenodd" clip-rule="evenodd" d="M196.807 55.2529C201.065 55.2529 204.528 54.2723 207.083 52.2564C209.694 50.2406 211 47.5713 211 44.3024C211 41.5242 210.205 39.2903 208.672 37.4924C207.14 35.6946 205.38 34.6049 203.45 34.1691C205.891 33.0798 208.105 30.4645 208.105 26.7598C208.105 20.4947 202.996 17.1169 195.729 17.1169H176.371V55.2529H196.808H196.807ZM186.589 38.9635H194.82C197.829 38.9635 199.816 40.4891 199.816 43.0493C199.816 45.61 197.943 47.0809 194.82 47.0809H186.589V38.9635ZM186.589 25.0712H194.196C196.694 25.0712 198.284 26.3243 198.284 28.449C198.284 30.4647 196.694 31.7177 194.196 31.7177H186.589V25.0712Z" fill="white"/>
<path fill-rule="evenodd" clip-rule="evenodd" d="M161.739 65.102C164.081 65.102 166.195 64.6635 168.138 63.8412V55.6716C166.71 56.4393 165.11 56.823 163.396 56.823C161.168 56.823 159.34 56.0556 157.969 54.4656C161.682 52.8755 164.596 50.4084 166.767 47.1733C168.938 43.9387 170.024 40.3198 170.024 36.3175C170.024 30.78 168.023 26.0648 164.024 22.1719C160.025 18.279 154.998 16.3601 148.941 16.3601C142.886 16.3601 137.858 18.2792 133.859 22.1719C129.86 26.0648 127.859 30.7798 127.859 36.3175C127.859 41.526 129.631 46.0768 133.23 49.8599C136.83 53.6429 141.4 55.7266 146.942 56.1652C152.484 62.7446 156.94 65.102 161.739 65.102ZM141.4 44.1031C139.4 42.0744 138.429 39.4429 138.429 36.3177C138.429 33.1924 139.4 30.5607 141.4 28.5322C143.399 26.5035 145.914 25.4622 148.941 25.4622C151.969 25.4622 154.426 26.5037 156.426 28.5322C158.425 30.5609 159.454 33.1924 159.454 36.3177C159.454 39.4429 158.425 42.0746 156.426 44.1031C154.426 46.1318 151.969 47.1733 148.941 47.1733C145.913 47.1733 143.399 46.1316 141.4 44.1031Z" fill="white"/>
</svg>
