<svg width="94" height="32" viewBox="0 0 94 32" fill="none" xmlns="http://www.w3.org/2000/svg">
<g clip-path="url(#clip0_1168_3373)">
<path fill-rule="evenodd" clip-rule="evenodd" d="M30.7583 7.66019C29.3352 5.41757 27.3561 3.53933 25.0069 2.20412C22.5422 0.80365 19.6666 0 16.5935 0C13.5205 0 10.6448 0.803472 8.18032 2.20412C5.83089 3.53924 3.852 5.41757 2.42871 7.6601C5.01366 8.52244 7.06522 10.4705 8.0111 12.9272C8.47486 11.7229 9.20301 10.6427 10.128 9.75263C11.7844 8.15832 14.0702 7.17247 16.5935 7.17247C19.1177 7.17247 21.4043 8.15894 23.0606 9.75406C23.9846 10.6439 24.7123 11.7233 25.1757 12.9265C26.1237 10.4621 28.1774 8.52297 30.7583 7.66019Z" fill="#B1B3B3"/>
<path fill-rule="evenodd" clip-rule="evenodd" d="M24.6042 20.2752C24.1877 20.9998 23.6688 21.6616 23.0665 22.2426C21.4098 23.8397 19.121 24.8275 16.5935 24.8275C14.0655 24.8275 11.7767 23.8394 10.1201 22.2419C8.46335 20.6445 7.43863 18.4375 7.43863 16C7.43863 12.6295 5.18253 9.66377 1.85726 8.63489C1.28791 9.69151 0.837427 10.8157 0.522873 11.9912C0.181576 13.2666 0 14.6099 0 16.0001C0 20.4183 1.85735 24.4185 4.86014 27.3138C7.86293 30.2091 12.0113 32 16.5935 32C18.7662 32 20.8262 31.1641 22.3432 29.6632C23.7499 28.2715 24.6149 26.3717 24.6064 24.2781L24.6041 20.2753L24.6042 20.2752Z" fill="#003D64"/>
<path fill-rule="evenodd" clip-rule="evenodd" d="M33.1873 16C33.1873 14.6098 33.0056 13.2665 32.6643 11.9911C32.3501 10.8158 31.8996 9.69142 31.3299 8.63489C28.0184 9.64963 25.7546 12.6272 25.7465 15.9799V24.2757C25.7562 26.8169 24.6245 29.2285 22.644 30.9039C24.8268 30.0793 26.7848 28.8218 28.4037 27.2407C31.3615 24.3519 33.1872 20.3822 33.1872 16H33.1873Z" fill="#D52023"/>
<path fill-rule="evenodd" clip-rule="evenodd" d="M47.3671 24.8908C49.4765 24.8908 51.2091 24.4067 52.5401 23.4138C53.8711 22.4211 54.549 21.1136 54.549 19.4429C54.549 17.9901 54.0718 16.852 53.1176 16.053C52.1633 15.254 50.8325 14.576 49.1499 14.0434C48.4218 13.8254 47.2665 13.5348 46.7394 13.3653L45.9358 13.099C45.4085 12.8812 45.2074 12.639 45.2074 12.3241C45.2074 11.5736 45.9859 11.2104 47.5179 11.2104C48.5223 11.2104 49.5518 11.3798 50.6317 11.6946C51.7115 12.0094 52.6404 12.3968 53.419 12.8569V8.66794C51.5857 7.72362 49.6019 7.26355 47.4674 7.26355C43.2486 7.26355 40.5616 9.07945 40.5616 12.3485C40.5616 13.3412 40.8629 14.2371 41.1895 14.8425C41.5661 15.4477 42.3949 16.0288 42.8971 16.3921C43.1734 16.5615 43.55 16.7311 44.0522 16.9248L45.2073 17.3606L46.4881 17.7238L48.0701 18.1839C48.3713 18.2807 48.9991 18.4503 49.2001 18.6197C49.6018 18.8861 49.8781 19.1039 49.8781 19.6124C49.8781 20.5083 48.9742 20.9442 47.191 20.9442C46.061 20.9442 44.8558 20.7262 43.575 20.2663C42.2945 19.8061 41.2899 19.2735 40.5615 18.6197V23.075C42.3948 24.2858 44.6549 24.8909 47.3669 24.8909L47.3671 24.8908Z" fill="#003D64"/>
<path fill-rule="evenodd" clip-rule="evenodd" d="M87.0553 24.5568C88.9387 24.5568 90.4706 24.121 91.6006 23.2251C92.7558 22.3292 93.3333 21.1428 93.3333 19.6899C93.3333 18.4552 92.9818 17.4623 92.3037 16.6633C91.6258 15.8643 90.8473 15.38 89.9936 15.1863C91.0733 14.7021 92.0526 13.5398 92.0526 11.8933C92.0526 9.10876 89.7926 7.60754 86.5785 7.60754H78.0156V24.5568H87.0555H87.0553ZM82.5353 17.3171H86.1764C87.5074 17.3171 88.3862 17.9951 88.3862 19.133C88.3862 20.2711 87.5576 20.9249 86.1764 20.9249H82.5353V17.3171ZM82.5353 11.1428H85.9003C87.0052 11.1428 87.7083 11.6997 87.7083 12.644C87.7083 13.5399 87.0052 14.0968 85.9003 14.0968H82.5353V11.1428Z" fill="#003D64"/>
<path fill-rule="evenodd" clip-rule="evenodd" d="M71.5435 28.9342C72.5795 28.9342 73.5145 28.7393 74.3737 28.3738V24.7429C73.7421 25.0841 73.0344 25.2546 72.2763 25.2546C71.2907 25.2546 70.4821 24.9135 69.8756 24.2069C71.518 23.5002 72.8071 22.4037 73.7674 20.9659C74.7276 19.5282 75.2079 17.9199 75.2079 16.1411C75.2079 13.68 74.3232 11.5843 72.5543 9.85413C70.7854 8.12394 68.5614 7.27112 65.8825 7.27112C63.2038 7.27112 60.9799 8.12403 59.2109 9.85413C57.4419 11.5843 56.5571 13.6799 56.5571 16.1411C56.5571 18.456 57.3407 20.4785 58.9328 22.1599C60.5251 23.8413 62.5467 24.7674 64.9981 24.9623C67.4495 27.8865 69.4206 28.9342 71.5435 28.9342ZM62.5466 19.6013C61.6621 18.6997 61.2324 17.5301 61.2324 16.1411C61.2324 14.7521 61.6621 13.5825 62.5466 12.681C63.4311 11.7793 64.5432 11.3165 65.8824 11.3165C67.2219 11.3165 68.3085 11.7794 69.193 12.681C70.0777 13.5826 70.5325 14.7521 70.5325 16.1411C70.5325 17.5301 70.0777 18.6998 69.193 19.6013C68.3084 20.503 67.2218 20.9659 65.8824 20.9659C64.5431 20.9659 63.431 20.5029 62.5466 19.6013Z" fill="#003D64"/>
</g>
<defs>
<clipPath id="clip0_1168_3373">
<rect width="93.3333" height="32" fill="white"/>
</clipPath>
</defs>
</svg>
