<svg width="76" height="26" viewBox="0 0 76 26" fill="none" xmlns="http://www.w3.org/2000/svg">
<g clip-path="url(#clip0_1603_73)">
<path fill-rule="evenodd" clip-rule="evenodd" d="M25.0462 6.22391C23.8874 4.40177 22.2758 2.87571 20.3629 1.79085C18.3559 0.652965 16.0143 0 13.512 0C11.0097 0 8.66805 0.652821 6.66123 1.79085C4.74813 2.87563 3.13674 4.40177 1.97778 6.22383C4.08267 6.92448 5.75323 8.50726 6.52344 10.5034C6.90108 9.52486 7.494 8.6472 8.24716 7.92402C9.59596 6.62863 11.4572 5.82763 13.512 5.82763C15.5674 5.82763 17.4293 6.62914 18.7781 7.92517C19.5304 8.64814 20.123 9.52515 20.5004 10.5028C21.2723 8.50047 22.9446 6.92492 25.0462 6.22391Z" fill="#B1B3B3"/>
<path fill-rule="evenodd" clip-rule="evenodd" d="M20.0348 16.4734C19.6957 17.0621 19.2732 17.5998 18.7827 18.0719C17.4337 19.3695 15.57 20.1721 13.5119 20.1721C11.4533 20.1721 9.58962 19.3693 8.24068 18.0713C6.89159 16.7734 6.05717 14.9802 6.05717 12.9998C6.05717 10.2612 4.22006 7.85159 1.51234 7.01562C1.04873 7.87413 0.681905 8.78755 0.425768 9.74265C0.147855 10.7789 0 11.8703 0 12.9999C0 16.5897 1.51242 19.8398 3.95754 22.1923C6.40267 24.5447 9.78065 25.9998 13.5119 25.9998C15.281 25.9998 16.9585 25.3206 18.1937 24.1011C19.3392 22.9704 20.0435 21.4267 20.0366 19.7257L20.0348 16.4734L20.0348 16.4734Z" fill="#003D64"/>
<path fill-rule="evenodd" clip-rule="evenodd" d="M27.0237 12.9998C27.0237 11.8702 26.8757 10.7788 26.5978 9.74258C26.342 8.78762 25.9752 7.87406 25.5113 7.01562C22.8147 7.8401 20.9714 10.2594 20.9648 12.9834V19.7238C20.9727 21.7885 20.0511 23.748 18.4385 25.1092C20.2159 24.4392 21.8102 23.4175 23.1285 22.1329C25.5369 19.7857 27.0236 16.5604 27.0236 12.9998H27.0237Z" fill="#D52023"/>
<path fill-rule="evenodd" clip-rule="evenodd" d="M38.5702 20.224C40.2879 20.224 41.6988 19.8307 42.7826 19.0239C43.8664 18.2174 44.4184 17.155 44.4184 15.7976C44.4184 14.6172 44.0298 13.6924 43.2528 13.0433C42.4757 12.3941 41.3921 11.8432 40.022 11.4104C39.4291 11.2334 38.4883 10.9973 38.0591 10.8596L37.4047 10.6432C36.9754 10.4662 36.8117 10.2694 36.8117 10.0136C36.8117 9.4038 37.4456 9.10867 38.693 9.10867C39.5109 9.10867 40.3492 9.2463 41.2285 9.50212C42.1078 9.75788 42.8643 10.0727 43.4982 10.4465V7.04292C42.0054 6.27566 40.39 5.90186 38.6519 5.90186C35.2167 5.90186 33.0286 7.37728 33.0286 10.0334C33.0286 10.8399 33.274 11.5679 33.5399 12.0597C33.8466 12.5515 34.5215 13.0236 34.9304 13.3188C35.1554 13.4565 35.4621 13.5942 35.871 13.7516L36.8115 14.1057L37.8545 14.4008L39.1427 14.7746C39.388 14.8533 39.8992 14.9911 40.0628 15.1288C40.3899 15.3451 40.6149 15.5221 40.6149 15.9353C40.6149 16.6632 39.8789 17.0174 38.4269 17.0174C37.5067 17.0174 36.5253 16.8403 35.4824 16.4666C34.4397 16.0927 33.6216 15.6599 33.0286 15.1288V18.7487C34.5214 19.7324 36.3617 20.2241 38.5701 20.2241L38.5702 20.224Z" fill="#003D64"/>
<path fill-rule="evenodd" clip-rule="evenodd" d="M70.888 19.9525C72.4216 19.9525 73.669 19.5984 74.5892 18.8704C75.5298 18.1425 76.0001 17.1785 76.0001 15.9981C76.0001 14.9949 75.7138 14.1882 75.1617 13.539C74.6097 12.8898 73.9758 12.4962 73.2806 12.3389C74.1598 11.9455 74.9572 11.0011 74.9572 9.6633C74.9572 7.40089 73.1169 6.18115 70.4997 6.18115H63.5271V19.9525H70.8882H70.888ZM67.2074 14.0702H70.1723C71.2561 14.0702 71.9717 14.6211 71.9717 15.5456C71.9717 16.4703 71.297 17.0015 70.1723 17.0015H67.2074V14.0702ZM67.2074 9.05354H69.9475C70.8472 9.05354 71.4197 9.50602 71.4197 10.2733C71.4197 11.0012 70.8472 11.4536 69.9475 11.4536H67.2074V9.05354Z" fill="#003D64"/>
<path fill-rule="evenodd" clip-rule="evenodd" d="M58.2569 23.509C59.1005 23.509 59.8619 23.3506 60.5615 23.0537V20.1035C60.0472 20.3808 59.4709 20.5193 58.8536 20.5193C58.0511 20.5193 57.3926 20.2422 56.8987 19.668C58.2362 19.0938 59.2859 18.2029 60.0678 17.0347C60.8496 15.8666 61.2408 14.5598 61.2408 13.1145C61.2408 11.1149 60.5204 9.41219 59.08 8.00641C57.6396 6.60063 55.8286 5.90771 53.6473 5.90771C51.466 5.90771 49.6551 6.60071 48.2146 8.00641C46.7741 9.41219 46.0537 11.1148 46.0537 13.1145C46.0537 14.9954 46.6918 16.6387 47.9882 18.0048C49.2847 19.371 50.9309 20.1234 52.9271 20.2818C54.9232 22.6577 56.5283 23.509 58.2569 23.509V23.509ZM50.9308 15.926C50.2106 15.1934 49.8607 14.2432 49.8607 13.1146C49.8607 11.986 50.2106 11.0357 50.9308 10.3032C51.6511 9.57062 52.5566 9.19458 53.6472 9.19458C54.7379 9.19458 55.6227 9.57069 56.343 10.3032C57.0633 11.0358 57.4337 11.986 57.4337 13.1146C57.4337 14.2432 57.0633 15.1935 56.343 15.926C55.6226 16.6586 54.7378 17.0347 53.6472 17.0347C52.5565 17.0347 51.651 16.6585 50.9308 15.926Z" fill="#003D64"/>
</g>
<defs>
<clipPath id="clip0_1603_73">
<rect width="76" height="26" fill="white"/>
</clipPath>
</defs>
</svg>
