<?xml version="1.0" encoding="UTF-8"?>
<!DOCTYPE svg PUBLIC "-//W3C//DTD SVG 1.1//EN" "http://www.w3.org/Graphics/SVG/1.1/DTD/svg11.dtd">
<!-- Creator: CorelDRAW -->
<svg xmlns="http://www.w3.org/2000/svg" xml:space="preserve" width="171.64mm" height="36.886mm" version="1.1" style="shape-rendering:geometricPrecision; text-rendering:geometricPrecision; image-rendering:optimizeQuality; fill-rule:evenodd; clip-rule:evenodd"
viewBox="0 0 17163.98 3688.6"
 xmlns:xlink="http://www.w3.org/1999/xlink"
 xmlns:xodm="http://www.corel.com/coreldraw/odm/2003">
 <defs>
  <style type="text/css">
   <![CDATA[
    .fil0 {fill:#00A96D}
    .fil1 {fill:#00A96D;fill-rule:nonzero}
   ]]>
  </style>
 </defs>
 <g id="Слой_x0020_1">
  <metadata id="CorelCorpID_0Corel-Layer"/>
  <g id="_1274828895552">
   <g id="_1906305625088">
    <g>
     <path class="fil0" d="M3412.05 884.4c-158.18,-258.5 -378.14,-475.01 -639.26,-628.91 -273.95,-161.45 -593.56,-254.08 -935.12,-254.08 -341.55,0 -661.18,92.62 -935.1,254.08 -261.13,153.89 -481.08,370.41 -639.27,628.9 287.3,99.41 515.33,323.95 620.46,607.14 51.54,-138.82 132.49,-263.33 235.28,-365.93 184.11,-183.79 438.16,-297.42 718.63,-297.42 280.57,0 534.7,113.72 718.81,297.58 102.7,102.57 183.58,226.99 235.08,365.69 105.36,-284.07 333.63,-507.6 620.49,-607.05z"/>
     <path class="fil0" d="M2728.03 2338.54c-46.28,83.52 -103.95,159.81 -170.91,226.77 -184.13,184.1 -438.51,297.97 -719.45,297.97 -280.98,0 -535.37,-113.9 -719.5,-298.04 -184.15,-184.14 -298.04,-438.53 -298.04,-719.51 0,-388.52 -250.76,-730.38 -620.36,-848.98 -63.28,121.79 -113.35,251.39 -148.31,386.88 -37.93,147.01 -58.11,301.84 -58.11,462.1 0,509.29 206.43,970.39 540.19,1304.14 333.75,333.74 794.83,540.18 1304.13,540.18 241.48,0 470.46,-96.36 639.06,-269.38 156.35,-160.42 252.5,-379.42 251.56,-620.74l-0.26 -461.39z"/>
     <path class="fil0" d="M3681.99 1845.73c0,-160.26 -20.19,-315.09 -58.11,-462.1 -34.94,-135.48 -85.01,-265.08 -148.31,-386.87 -368.09,116.97 -619.68,460.19 -620.59,846.65l0 956.27c1.07,292.91 -124.71,570.9 -344.83,764.02 242.62,-95.04 460.23,-239.99 640.17,-422.24 328.75,-333 531.67,-790.59 531.67,-1295.73z"/>
     <path class="fil1" d="M5258.06 2870.59c234.45,0 427.03,-55.82 574.97,-170.26 147.93,-114.43 223.28,-265.14 223.28,-457.73 0,-167.46 -53.04,-298.66 -159.1,-390.75 -106.06,-92.11 -253.98,-170.26 -441,-231.66 -80.93,-25.12 -209.33,-58.62 -267.93,-78.16l-89.31 -30.69c-58.61,-25.12 -80.95,-53.03 -80.95,-89.33 0,-86.51 86.53,-128.38 256.79,-128.38 111.64,0 226.07,19.53 346.1,55.83 120.01,36.28 223.27,80.94 309.8,133.97l0 -482.86c-203.76,-108.86 -424.25,-161.89 -661.49,-161.89 -468.91,0 -767.55,209.33 -767.55,586.13 0,114.44 33.49,217.7 69.78,287.49 41.86,69.77 133.97,136.75 189.79,178.62 30.71,19.54 72.57,39.08 128.4,61.41l128.38 50.23 142.36 41.87 175.83 53.03c33.49,11.17 103.27,30.71 125.6,50.25 44.65,30.69 75.35,55.81 75.35,114.43 0,103.26 -100.47,153.51 -298.65,153.51 -125.6,0 -259.56,-25.12 -401.91,-78.15 -142.33,-53.04 -253.99,-114.44 -334.93,-189.79l0 513.56c203.75,139.55 454.95,209.32 756.39,209.32z"/>
     <path class="fil1" d="M9669.32 2832.08c209.34,0 379.6,-50.24 505.2,-153.51 128.39,-103.27 192.58,-240.02 192.58,-407.5 0,-142.34 -39.07,-256.77 -114.44,-348.88 -75.35,-92.1 -161.88,-147.93 -256.77,-170.25 120.01,-55.82 228.85,-189.79 228.85,-379.59 0,-320.97 -251.18,-494.02 -608.43,-494.02l-951.76 0 0 1953.75 1004.77 0zm-502.39 -834.52l404.71 0c147.93,0 245.62,78.15 245.62,209.32 0,131.18 -92.11,206.54 -245.62,206.54l-404.71 0 0 -415.86zm0 -711.73l374.01 0c122.81,0 200.96,64.2 200.96,173.05 0,103.27 -78.15,167.46 -200.96,167.46l-374.01 0 0 -340.51z"/>
     <path class="fil1" d="M7945.23 3336.66c115.15,0 219.08,-22.46 314.57,-64.59l0 -418.53c-70.21,39.32 -148.86,58.98 -233.12,58.98 -109.55,0 -199.43,-39.32 -266.85,-120.77 182.57,-81.47 325.85,-207.86 432.57,-373.59 106.73,-165.72 160.11,-351.12 160.11,-556.16 0,-283.69 -98.32,-525.26 -294.94,-724.69 -196.61,-199.44 -443.8,-297.75 -741.55,-297.75 -297.73,0 -544.92,98.31 -741.54,297.75 -196.62,199.43 -294.94,441 -294.94,724.69 0,266.84 87.08,499.98 264.04,693.79 176.97,193.82 401.67,300.56 674.14,323.03 272.46,337.07 491.55,457.84 727.51,457.84zm-999.98 -1075.8c-98.3,-103.93 -146.06,-238.75 -146.06,-398.86 0,-160.11 47.76,-294.93 146.06,-398.86 98.32,-103.93 221.91,-157.3 370.77,-157.3 148.87,0 269.66,53.37 367.97,157.3 98.32,103.93 148.87,238.75 148.87,398.86 0,160.11 -50.55,294.93 -148.87,398.86 -98.31,103.93 -219.1,157.3 -367.97,157.3 -148.86,0 -272.45,-53.37 -370.77,-157.3z"/>
    </g>
    <polygon class="fil0" points="11194.11,838.68 11294.74,838.68 11294.74,2870.59 11194.11,2870.59 "/>
    <path class="fil1" d="M12657.76 2390.34c172.66,0 327.61,-72.31 411.73,-172.66l0 -442.72 -162.33 0 0 376.31c-60.51,57.55 -144.62,87.07 -249.4,87.07 -104.78,0 -191.85,-35.42 -264.16,-104.78 -70.84,-70.84 -106.26,-163.81 -106.26,-277.44 0,-113.63 36.9,-205.13 109.21,-277.44 72.31,-72.31 165.28,-107.73 277.44,-107.73 110.68,0 213.98,32.47 308.43,97.4l0 -160.86c-87.07,-59.03 -193.32,-88.54 -318.76,-88.54 -154.95,0 -284.82,50.17 -388.12,152 -103.3,100.35 -154.95,228.74 -154.95,383.69 0,154.96 51.65,283.35 153.47,385.18 103.31,100.34 231.7,150.52 383.7,150.52zm804.29 -19.18l0 -436.82 242.01 0 311.39 436.82 196.27 0 -324.66 -454.53c141.67,-33.95 224.32,-143.15 224.32,-284.82 0,-87.07 -31,-157.91 -91.5,-212.51 -60.51,-54.61 -144.62,-81.17 -249.41,-81.17l-470.76 0 0 1033.03 162.34 0zm0 -883.98l298.1 0c118.06,0 187.42,56.08 187.42,150.53 0,98.87 -69.36,153.48 -187.42,153.48l-298.1 0 0 -304.01zm1673.5 883.98l0 -149.06 -591.78 0 0 -327.61 466.34 0 0 -149.05 -466.34 0 0 -258.26 572.59 0 0 -149.05 -734.92 0 0 1033.03 754.11 0zm945.96 0l0 -149.06 -591.78 0 0 -327.61 466.34 0 0 -149.05 -466.34 0 0 -258.26 572.59 0 0 -149.05 -734.93 0 0 1033.03 754.12 0zm351.23 0l0 -751.16 587.34 751.16 137.25 0 0 -1033.03 -159.38 0 0 748.2 -582.92 -748.2 -141.68 0 0 1033.03 159.39 0z"/>
   </g>
  </g>
 </g>
</svg>
