<?xml version="1.0" encoding="UTF-8"?>
<!DOCTYPE svg PUBLIC "-//W3C//DTD SVG 1.1//EN" "http://www.w3.org/Graphics/SVG/1.1/DTD/svg11.dtd">
<!-- Creator: CorelDRAW -->
<svg xmlns="http://www.w3.org/2000/svg" xml:space="preserve" width="190.367mm" height="36.886mm" version="1.1" style="shape-rendering:geometricPrecision; text-rendering:geometricPrecision; image-rendering:optimizeQuality; fill-rule:evenodd; clip-rule:evenodd"
viewBox="0 0 19036.7 3688.6"
 xmlns:xlink="http://www.w3.org/1999/xlink"
 xmlns:xodm="http://www.corel.com/coreldraw/odm/2003">
 <defs>
  <style type="text/css">
   <![CDATA[
    .fil0 {fill:#794886}
    .fil1 {fill:#794886;fill-rule:nonzero}
   ]]>
  </style>
 </defs>
 <g id="Слой_x0020_1">
  <metadata id="CorelCorpID_0Corel-Layer"/>
  <g id="_1275213953152">
   <g id="_1907942103104">
    <g>
     <path class="fil0" d="M3412.85 884.4c-158.18,-258.5 -378.13,-475.01 -639.26,-628.92 -273.94,-161.44 -593.55,-254.07 -935.11,-254.07 -341.56,0 -661.19,92.62 -935.1,254.07 -261.14,153.9 -481.08,370.42 -639.27,628.91 287.3,99.41 515.33,323.95 620.45,607.14 51.55,-138.82 132.49,-263.33 235.28,-365.93 184.12,-183.79 438.17,-297.42 718.64,-297.42 280.57,0 534.7,113.71 718.8,297.58 102.7,102.57 183.58,226.99 235.09,365.69 105.36,-284.07 333.63,-507.6 620.48,-607.05z"/>
     <path class="fil0" d="M2728.84 2338.53c-46.29,83.52 -103.95,159.82 -170.91,226.78 -184.14,184.1 -438.52,297.97 -719.45,297.97 -280.98,0 -535.37,-113.9 -719.51,-298.04 -184.14,-184.14 -298.04,-438.54 -298.04,-719.52 0,-388.51 -250.75,-730.37 -620.35,-848.97 -63.29,121.79 -113.36,251.39 -148.31,386.88 -37.93,147.01 -58.12,301.84 -58.12,462.09 0,509.3 206.44,970.39 540.19,1304.15 333.76,333.74 794.84,540.18 1304.14,540.18 241.48,0 470.45,-96.36 639.06,-269.38 156.34,-160.42 252.49,-379.42 251.55,-620.74l-0.25 -461.4z"/>
     <path class="fil0" d="M3682.8 1845.72c0,-160.25 -20.2,-315.08 -58.12,-462.09 -34.93,-135.48 -85,-265.08 -148.31,-386.87 -368.08,116.97 -619.67,460.19 -620.59,846.65l0 956.27c1.08,292.91 -124.7,570.9 -344.82,764.02 242.61,-95.04 460.23,-240 640.16,-422.25 328.75,-332.99 531.68,-790.58 531.68,-1295.73z"/>
     <path class="fil1" d="M5258.86 2870.59c234.45,0 427.04,-55.82 574.97,-170.26 147.93,-114.43 223.28,-265.14 223.28,-457.73 0,-167.46 -53.03,-298.66 -159.09,-390.75 -106.06,-92.11 -253.98,-170.26 -441,-231.66 -80.93,-25.12 -209.33,-58.62 -267.93,-78.16l-89.32 -30.69c-58.6,-25.12 -80.95,-53.03 -80.95,-89.33 0,-86.52 86.53,-128.38 256.8,-128.38 111.63,0 226.06,19.53 346.09,55.82 120.01,36.29 223.28,80.95 309.81,133.98l0 -482.87c-203.77,-108.85 -424.26,-161.88 -661.49,-161.88 -468.91,0 -767.56,209.32 -767.56,586.13 0,114.44 33.49,217.7 69.79,287.49 41.86,69.77 133.97,136.75 189.79,178.62 30.71,19.54 72.57,39.08 128.39,61.41l128.38 50.23 142.37 41.87 175.83 53.03c33.49,11.17 103.26,30.71 125.6,50.25 44.64,30.69 75.35,55.81 75.35,114.43 0,103.26 -100.47,153.51 -298.66,153.51 -125.59,0 -259.55,-25.12 -401.91,-78.15 -142.33,-53.04 -253.99,-114.44 -334.93,-189.79l0 513.55c203.76,139.56 454.95,209.33 756.39,209.33z"/>
     <path class="fil1" d="M9670.13 2832.08c209.33,0 379.6,-50.24 505.19,-153.51 128.4,-103.27 192.58,-240.03 192.58,-407.5 0,-142.34 -39.07,-256.77 -114.44,-348.88 -75.34,-92.11 -161.87,-147.93 -256.76,-170.25 120.01,-55.83 228.85,-189.8 228.85,-379.59 0,-320.97 -251.19,-494.02 -608.44,-494.02l-951.75 0 0 1953.75 1004.77 0zm-502.39 -834.52l404.7 0c147.94,0 245.62,78.15 245.62,209.32 0,131.18 -92.11,206.54 -245.62,206.54l-404.7 0 0 -415.86zm0 -711.73l374.01 0c122.8,0 200.96,64.2 200.96,173.05 0,103.26 -78.16,167.46 -200.96,167.46l-374.01 0 0 -340.51z"/>
     <path class="fil1" d="M7946.03 3336.66c115.16,0 219.09,-22.46 314.57,-64.59l0 -418.54c-70.2,39.33 -148.86,58.99 -233.12,58.99 -109.54,0 -199.42,-39.32 -266.84,-120.78 182.57,-81.46 325.84,-207.85 432.56,-373.59 106.74,-165.72 160.12,-351.11 160.12,-556.15 0,-283.69 -98.32,-525.26 -294.95,-724.69 -196.61,-199.44 -443.8,-297.75 -741.54,-297.75 -297.74,0 -544.92,98.31 -741.54,297.75 -196.62,199.43 -294.94,441 -294.94,724.69 0,266.84 87.08,499.98 264.04,693.79 176.97,193.82 401.66,300.56 674.14,323.03 272.46,337.07 491.55,457.84 727.5,457.84zm-999.98 -1075.8c-98.3,-103.93 -146.06,-238.75 -146.06,-398.86 0,-160.11 47.76,-294.93 146.06,-398.86 98.32,-103.93 221.91,-157.3 370.78,-157.3 148.87,0 269.66,53.37 367.97,157.3 98.32,103.93 148.87,238.75 148.87,398.86 0,160.11 -50.55,294.93 -148.87,398.86 -98.31,103.93 -219.1,157.29 -367.97,157.29 -148.87,0 -272.46,-53.36 -370.78,-157.29z"/>
    </g>
    <polygon class="fil0" points="11194.92,838.68 11295.55,838.68 11295.55,2870.59 11194.92,2870.59 "/>
    <path class="fil1" d="M12665.94 2390.34c116.59,0 216.94,-28.04 302.53,-82.64l0 -163.81c-79.69,63.46 -178.57,94.45 -295.15,94.45 -110.68,0 -202.18,-35.42 -275.97,-107.73 -72.31,-72.31 -109.2,-165.29 -109.2,-275.97 0,-110.68 35.42,-202.18 107.73,-274.49 72.31,-72.31 163.81,-109.2 271.54,-109.2 101.83,0 194.8,26.56 278.91,81.16l0 -163.8c-81.16,-45.75 -174.13,-69.36 -280.39,-69.36 -156.43,0 -286.29,50.17 -389.6,152 -103.3,100.35 -154.95,228.74 -154.95,383.69 0,154.96 51.65,283.34 154.95,385.18 104.78,100.34 234.65,150.52 389.6,150.52zm720.17 -261.21c-69.36,-73.78 -103.31,-165.28 -103.31,-274.49 0,-109.2 33.95,-200.7 103.31,-273.01 69.36,-73.79 154.95,-110.68 256.78,-110.68 101.82,0 187.42,36.89 256.78,110.68 69.36,72.31 104.77,163.81 104.77,273.01 0,109.21 -35.41,200.71 -104.77,274.49 -69.36,72.31 -154.96,109.21 -256.78,109.21 -101.83,0 -187.42,-36.9 -256.78,-109.21zm634.57 107.73c100.35,-103.3 150.53,-230.21 150.53,-382.22 0,-152 -50.18,-278.91 -150.53,-380.74 -100.35,-103.3 -225.79,-154.95 -377.79,-154.95 -152.01,0 -277.44,51.65 -377.8,154.95 -98.87,101.83 -149.04,228.74 -149.04,380.74 0,152.01 50.17,278.92 149.04,382.22 100.36,101.83 225.79,153.48 377.8,153.48 152,0 277.44,-51.65 377.79,-153.48zm529.8 134.29l0 -751.15 587.34 751.15 137.25 0 0 -1033.02 -159.38 0 0 748.2 -582.92 -748.2 -141.68 0 0 1033.02 159.39 0zm1307.51 19.19c113.63,0 208.08,-28.04 283.35,-82.64 75.26,-54.61 113.63,-129.87 113.63,-225.79 -5.91,-116.59 -54.61,-190.37 -146.1,-239.07 -64.94,-35.42 -110.68,-53.13 -188.9,-76.75l-118.06 -33.93c-25.09,-10.34 -72.31,-25.09 -91.5,-36.9 -35.41,-25.09 -60.5,-48.7 -60.5,-92.97 0,-76.74 69.36,-131.34 211.03,-131.34 113.63,0 222.84,32.47 327.62,95.92l0 -162.33c-95.92,-57.56 -206.61,-85.59 -330.57,-85.59 -231.69,0 -374.84,110.68 -374.84,281.86 0,94.45 30.99,160.86 106.25,208.08 38.37,22.14 72.31,39.85 103.3,51.65 31,11.81 76.75,26.57 134.3,42.8l20.66 5.9c66.41,19.19 94.45,26.57 141.67,48.71 23.61,10.32 41.32,20.65 53.13,30.99 25.09,22.13 45.75,54.6 45.75,95.92 0,95.92 -103.31,153.48 -239.08,153.48 -70.83,0 -141.67,-13.29 -212.5,-39.85 -69.36,-26.56 -125.44,-57.55 -166.76,-94.44l0 175.61c101.82,73.79 230.22,110.68 388.12,110.68zm590.3 -456.01c0,146.1 39.85,258.26 119.53,337.95 81.17,78.22 184.47,118.06 312.87,118.06 128.38,0 231.69,-39.84 312.85,-119.54 81.17,-79.68 121.02,-191.84 121.02,-336.47l0 -596.2 -162.34 0 0 602.11c0,193.32 -107.73,298.1 -271.53,298.1 -163.81,0 -270.07,-104.78 -270.07,-298.1l0 -602.11 -162.33 0 0 596.2zm1821.07 436.82l0 -149.05 -548.98 0 0 -883.97 -163.81 0 0 1033.02 712.79 0zm-84.11 -883.97l340.89 0 0 883.97 162.34 0 0 -883.97 342.37 0 0 -149.05 -845.6 0 0 149.05z"/>
   </g>
  </g>
 </g>
</svg>
