<svg width="123" height="24" viewBox="0 0 123 24" fill="none" xmlns="http://www.w3.org/2000/svg">
<g clip-path="url(#clip0_180_1801)">
<path fill-rule="evenodd" clip-rule="evenodd" d="M22.2003 5.75448C21.1711 4.07254 19.74 2.66381 18.041 1.66246C16.2585 0.611978 14.179 0.00927734 11.9566 0.00927734C9.73428 0.00927734 7.65459 0.611912 5.87232 1.66246C4.17327 2.66375 2.74216 4.07254 1.71289 5.75442C3.58222 6.40123 5.0659 7.86221 5.74993 9.70479C6.08528 8.80156 6.61198 7.99143 7.28079 7.32386C8.47871 6.12802 10.1317 5.38868 11.9566 5.38868C13.7821 5.38868 15.4356 6.12861 16.6335 7.3249C17.3018 7.99227 17.828 8.80182 18.1631 9.70427C18.8486 7.85596 20.3339 6.40156 22.2003 5.75448V5.75448Z" fill="#00A96D"/>
<path fill-rule="evenodd" clip-rule="evenodd" d="M17.7503 15.2158C17.4492 15.7592 17.074 16.2556 16.6383 16.6912C15.4402 17.8891 13.7851 18.63 11.9572 18.63C10.129 18.63 8.47376 17.8889 7.27571 16.6908C6.07753 15.4927 5.3365 13.8375 5.3365 12.0093C5.3365 9.48135 3.70492 7.25703 1.30011 6.48535C0.888376 7.27778 0.562594 8.12103 0.335126 9.0026C0.0883331 9.95912 -0.0429688 10.9665 -0.0429688 12.0093C-0.0429688 15.323 1.30017 18.3231 3.4718 20.4947C5.64335 22.6662 8.64338 24.0094 11.9572 24.0094C13.5284 24.0094 15.0182 23.3824 16.1152 22.2567C17.1325 21.2129 17.7581 19.788 17.752 18.2178L17.7503 15.2158V15.2158Z" fill="#00A96D"/>
<path fill-rule="evenodd" clip-rule="evenodd" d="M23.9566 12.0094C23.9566 10.9667 23.8253 9.9593 23.5786 9.00278C23.3512 8.12127 23.0254 7.27803 22.6136 6.4856C20.2186 7.24666 18.5816 9.47984 18.5757 11.9944V18.2164C18.5826 20.1222 17.7642 21.9309 16.332 23.1875C17.9106 22.5691 19.3265 21.626 20.4973 20.4402C22.6363 18.2735 23.9566 15.2962 23.9566 12.0094Z" fill="#00A96D"/>
<path d="M34.2125 18.6777C35.738 18.6777 36.991 18.3145 37.9536 17.5699C38.9161 16.8254 39.4063 15.8448 39.4063 14.5917C39.4063 13.5021 39.0612 12.6484 38.3711 12.0493C37.6811 11.4499 36.7186 10.9415 35.5018 10.542C34.9752 10.3785 34.1397 10.1605 33.7585 10.0334L33.1774 9.83372C32.796 9.67027 32.6507 9.48867 32.6507 9.25249C32.6507 8.68961 33.2137 8.41718 34.3215 8.41718C35.0479 8.41718 35.7924 8.54425 36.5734 8.78044C37.3542 9.01649 38.0261 9.30708 38.5891 9.65212V6.51037C37.2633 5.80207 35.8287 5.45703 34.2851 5.45703C31.2341 5.45703 29.291 6.81904 29.291 9.27071C29.291 10.0153 29.5089 10.6872 29.745 11.1413C30.0174 11.5952 30.6167 12.031 30.9799 12.3035C31.1797 12.4306 31.4521 12.5577 31.8154 12.703L32.6507 13.0299L33.5769 13.3023L34.721 13.6473C34.9389 13.72 35.3929 13.8471 35.5382 13.9743C35.8287 14.174 36.0285 14.3374 36.0285 14.7188C36.0285 15.3907 35.3748 15.7176 34.0853 15.7176C33.2681 15.7176 32.3965 15.5542 31.4703 15.2092C30.5442 14.864 29.8177 14.4645 29.291 13.9743V17.3158C30.6167 18.2238 32.2512 18.6777 34.2125 18.6777V18.6777Z" fill="#00A96D"/>
<path d="M62.9145 18.427C64.2766 18.427 65.3844 18.1001 66.2016 17.4282C67.037 16.7562 67.4547 15.8665 67.4547 14.7768C67.4547 13.8506 67.2004 13.1061 66.71 12.5068C66.2198 11.9075 65.6568 11.5442 65.0394 11.399C65.8202 11.0358 66.5284 10.1641 66.5284 8.9292C66.5284 6.8408 64.8941 5.71484 62.5696 5.71484H56.377V18.427H62.9145ZM59.6457 12.9972H62.279C63.2415 12.9972 63.8771 13.5056 63.8771 14.3591C63.8771 15.2126 63.2778 15.703 62.279 15.703H59.6457V12.9972ZM59.6457 8.36626H62.0792C62.8783 8.36626 63.3868 8.78398 63.3868 9.49221C63.3868 10.1641 62.8783 10.5818 62.0792 10.5818H59.6457V8.36626Z" fill="#00A96D"/>
<path d="M51.6953 21.7101C52.4445 21.7101 53.1207 21.564 53.742 21.2899V18.5667C53.2852 18.8225 52.7735 18.9504 52.2252 18.9504C51.5125 18.9504 50.9276 18.6946 50.489 18.1646C51.6769 17.6345 52.6091 16.8122 53.3035 15.7339C53.998 14.6556 54.3453 13.4493 54.3453 12.1152C54.3453 10.2693 53.7055 8.69757 52.4262 7.39997C51.147 6.1023 49.5386 5.46265 47.6013 5.46265C45.6641 5.46265 44.0558 6.1023 42.7765 7.39997C41.4971 8.69757 40.8574 10.2693 40.8574 12.1152C40.8574 13.8514 41.424 15.3683 42.5754 16.6294C43.7269 17.8905 45.1889 18.585 46.9617 18.7312C48.7345 20.9243 50.16 21.7101 51.6953 21.7101V21.7101ZM45.1889 14.7104C44.5493 14.0342 44.2385 13.1569 44.2385 12.1152C44.2385 11.0734 44.5493 10.1962 45.1889 9.51999C45.8286 8.84377 46.6328 8.49651 47.6013 8.49651C48.5699 8.49651 49.3559 8.84377 49.9955 9.51999C50.6352 10.1962 50.9641 11.0734 50.9641 12.1152C50.9641 13.1569 50.6352 14.0342 49.9955 14.7104C49.3559 15.3866 48.5699 15.7339 47.6013 15.7339C46.6328 15.7339 45.8286 15.3866 45.1889 14.7104Z" fill="#00A96D"/>
<path fill-rule="evenodd" clip-rule="evenodd" d="M75 5H76V19H75V5Z" fill="#00A96D"/>
<path d="M85.3611 16.971C86.8069 16.971 88.1043 16.3656 88.8087 15.5253V11.8183H87.4494V14.9692C86.9428 15.4511 86.2385 15.6983 85.3611 15.6983C84.4838 15.6983 83.7547 15.4017 83.1493 14.8209C82.5561 14.2278 82.2595 13.4493 82.2595 12.4979C82.2595 11.5464 82.5685 10.7803 83.174 10.1748C83.7794 9.56932 84.5579 9.27274 85.4971 9.27274C86.4238 9.27274 87.2888 9.54462 88.0796 10.0883V8.74137C87.3506 8.2471 86.4609 8 85.4106 8C84.1131 8 83.0257 8.42009 82.1607 9.27274C81.2958 10.113 80.8633 11.188 80.8633 12.4855C80.8633 13.783 81.2958 14.858 82.1483 15.7107C83.0134 16.5509 84.0884 16.971 85.3611 16.971V16.971ZM92.0957 16.8104V13.1528H94.1221L96.7295 16.8104H98.3729L95.6544 13.0045C96.8406 12.7203 97.5327 11.8059 97.5327 10.6197C97.5327 9.8906 97.2731 9.29744 96.7665 8.84026C96.2599 8.38299 95.5556 8.1606 94.6782 8.1606H90.7364V16.8104H92.0957ZM92.0957 9.40864H94.5918C95.5803 9.40864 96.1611 9.87821 96.1611 10.6691C96.1611 11.4969 95.5803 11.9542 94.5918 11.9542H92.0957V9.40864ZM106.108 16.8104V15.5623H101.153V12.8192H105.058V11.5711H101.153V9.40864H105.948V8.1606H99.794V16.8104H106.108ZM114.029 16.8104V15.5623H109.074V12.8192H112.979V11.5711H109.074V9.40864H113.868V8.1606H107.715V16.8104H114.029ZM116.97 16.8104V10.5208L121.888 16.8104H123.037V8.1606H121.703V14.4255L116.822 8.1606H115.635V16.8104H116.97Z" fill="#00A96D"/>
</g>
<defs>
<clipPath id="clip0_180_1801">
<rect width="123" height="24" fill="white"/>
</clipPath>
</defs>
</svg>
