<?xml version="1.0" encoding="UTF-8"?>
<!DOCTYPE svg PUBLIC "-//W3C//DTD SVG 1.1//EN" "http://www.w3.org/Graphics/SVG/1.1/DTD/svg11.dtd">
<!-- Creator: CorelDRAW -->
<svg xmlns="http://www.w3.org/2000/svg" xml:space="preserve" width="207.116mm" height="36.886mm" version="1.1" style="shape-rendering:geometricPrecision; text-rendering:geometricPrecision; image-rendering:optimizeQuality; fill-rule:evenodd; clip-rule:evenodd"
viewBox="0 0 20711.6 3688.6"
 xmlns:xlink="http://www.w3.org/1999/xlink"
 xmlns:xodm="http://www.corel.com/coreldraw/odm/2003">
 <defs>
  <style type="text/css">
   <![CDATA[
    .fil0 {fill:#0590C9}
    .fil1 {fill:#0590C9;fill-rule:nonzero}
   ]]>
  </style>
 </defs>
 <g id="Слой_x0020_1">
  <metadata id="CorelCorpID_0Corel-Layer"/>
  <g id="_1274833037792">
   <g id="_1915773818864">
    <g>
     <path class="fil0" d="M3411.8 884.41c-158.17,-258.51 -378.13,-475.01 -639.26,-628.92 -273.94,-161.44 -593.55,-254.07 -935.1,-254.07 -341.56,0 -661.18,92.62 -935.1,254.07 -261.14,153.9 -481.08,370.41 -639.27,628.91 287.3,99.4 515.33,323.95 620.46,607.14 51.54,-138.83 132.48,-263.34 235.27,-365.94 184.12,-183.78 438.17,-297.41 718.64,-297.41 280.56,0 534.69,113.71 718.79,297.58 102.7,102.57 183.58,226.99 235.09,365.68 105.36,-284.07 333.63,-507.6 620.48,-607.04z"/>
     <path class="fil0" d="M2727.79 2338.53c-46.29,83.52 -103.95,159.81 -170.91,226.77 -184.14,184.11 -438.51,297.97 -719.44,297.97 -280.98,0 -535.37,-113.9 -719.51,-298.04 -184.14,-184.13 -298.04,-438.53 -298.04,-719.5 0,-388.51 -250.75,-730.37 -620.35,-848.98 -63.29,121.79 -113.36,251.39 -148.31,386.89 -37.93,147.01 -58.12,301.83 -58.12,462.09 0,509.29 206.44,970.38 540.19,1304.13 333.76,333.75 794.84,540.18 1304.14,540.18 241.47,0 470.44,-96.35 639.05,-269.37 156.34,-160.43 252.49,-379.42 251.55,-620.74l-0.25 -461.4z"/>
     <path class="fil0" d="M3681.75 1845.73c0,-160.26 -20.2,-315.08 -58.12,-462.09 -34.93,-135.49 -85,-265.09 -148.31,-386.88 -368.08,116.97 -619.67,460.19 -620.59,846.66l0 956.25c1.08,292.92 -124.7,570.91 -344.82,764.03 242.61,-95.05 460.23,-240 640.16,-422.25 328.75,-333 531.68,-790.59 531.68,-1295.72z"/>
     <path class="fil1" d="M5257.81 2870.58c234.45,0 427.03,-55.81 574.96,-170.25 147.93,-114.43 223.29,-265.15 223.29,-457.74 0,-167.46 -53.04,-298.65 -159.1,-390.74 -106.06,-92.11 -253.98,-170.25 -440.99,-231.66 -80.93,-25.11 -209.33,-58.61 -267.93,-78.15l-89.31 -30.7c-58.61,-25.12 -80.96,-53.03 -80.96,-89.32 0,-86.52 86.53,-128.38 256.8,-128.38 111.63,0 226.07,19.53 346.08,55.82 120.01,36.28 223.28,80.94 309.81,133.97l0 -482.86c-203.77,-108.85 -424.25,-161.88 -661.48,-161.88 -468.91,0 -767.56,209.32 -767.56,586.12 0,114.44 33.49,217.71 69.79,287.49 41.86,69.78 133.97,136.76 189.79,178.62 30.71,19.54 72.57,39.08 128.39,61.4l128.38 50.24 142.37 41.87 175.83 53.03c33.49,11.16 103.26,30.7 125.6,50.24 44.64,30.7 75.35,55.82 75.35,114.43 0,103.27 -100.47,153.51 -298.66,153.51 -125.59,0 -259.55,-25.12 -401.91,-78.14 -142.33,-53.04 -253.99,-114.45 -334.93,-189.8l0 513.56c203.76,139.56 454.95,209.32 756.39,209.32z"/>
     <path class="fil1" d="M9669.06 2832.08c209.33,0 379.6,-50.25 505.2,-153.51 128.39,-103.28 192.57,-240.03 192.57,-407.5 0,-142.34 -39.07,-256.78 -114.44,-348.88 -75.34,-92.1 -161.87,-147.92 -256.76,-170.25 120.01,-55.82 228.85,-189.79 228.85,-379.58 0,-320.97 -251.19,-494.02 -608.44,-494.02l-951.74 0 0 1953.74 1004.76 0zm-502.38 -834.53l404.69 0c147.94,0 245.62,78.16 245.62,209.32 0,131.19 -92.11,206.54 -245.62,206.54l-404.69 0 0 -415.86zm0 -711.71l374 0c122.8,0 200.96,64.19 200.96,173.05 0,103.26 -78.16,167.46 -200.96,167.46l-374 0 0 -340.51z"/>
     <path class="fil1" d="M7944.97 3336.66c115.16,0 219.09,-22.47 314.57,-64.6l0 -418.53c-70.2,39.32 -148.86,58.99 -233.12,58.99 -109.54,0 -199.42,-39.33 -266.84,-120.78 182.57,-81.46 325.84,-207.86 432.56,-373.59 106.74,-165.72 160.12,-351.11 160.12,-556.15 0,-283.69 -98.32,-525.25 -294.94,-724.69 -196.62,-199.43 -443.81,-297.74 -741.55,-297.74 -297.74,0 -544.92,98.31 -741.54,297.74 -196.62,199.44 -294.94,441 -294.94,724.69 0,266.84 87.08,499.98 264.04,693.78 176.97,193.82 401.66,300.56 674.14,323.03 272.46,337.07 491.55,457.85 727.5,457.85zm-999.98 -1075.81c-98.3,-103.93 -146.06,-238.75 -146.06,-398.85 0,-160.11 47.76,-294.93 146.06,-398.86 98.32,-103.93 221.91,-157.29 370.78,-157.29 148.87,0 269.66,53.36 367.97,157.29 98.32,103.93 148.87,238.75 148.87,398.86 0,160.1 -50.55,294.92 -148.87,398.85 -98.31,103.93 -219.1,157.3 -367.97,157.3 -148.87,0 -272.46,-53.37 -370.78,-157.3z"/>
    </g>
    <polygon class="fil0" points="11193.85,838.69 11294.48,838.69 11294.48,2870.59 11193.85,2870.59 "/>
    <path class="fil1" d="M12508.44 2390.34c113.64,0 208.08,-28.05 283.35,-82.65 75.26,-54.6 113.63,-129.86 113.63,-225.79 -5.9,-116.58 -54.6,-190.37 -146.1,-239.06 -64.93,-35.42 -110.68,-53.12 -188.9,-76.74l-118.06 -33.94c-25.09,-10.33 -72.31,-25.09 -91.49,-36.89 -35.42,-25.09 -60.51,-48.7 -60.51,-92.98 0,-76.74 69.36,-131.34 211.03,-131.34 113.64,0 222.84,32.47 327.62,95.93l0 -162.34c-95.92,-57.55 -206.61,-85.59 -330.57,-85.59 -231.69,0 -374.84,110.68 -374.84,281.87 0,94.45 30.99,160.85 106.25,208.08 38.38,22.13 72.32,39.84 103.31,51.65 30.99,11.79 76.74,26.55 134.29,42.79l20.66 5.9c66.41,19.19 94.45,26.56 141.67,48.7 23.62,10.33 41.32,20.66 53.13,30.99 25.09,22.13 45.75,54.6 45.75,95.92 0,95.93 -103.31,153.48 -239.07,153.48 -70.84,0 -141.68,-13.28 -212.51,-39.84 -69.36,-26.57 -125.44,-57.56 -166.76,-94.45l0 175.61c101.83,73.79 230.22,110.69 388.12,110.69zm1357.68 -19.19l0 -149.05 -591.77 0 0 -327.62 466.33 0 0 -149.04 -466.33 0 0 -258.25 572.59 0 0 -149.06 -734.93 0 0 1033.02 754.11 0zm677.37 19.19c116.59,0 216.94,-28.05 302.53,-82.65l0 -163.81c-79.69,63.46 -178.57,94.45 -295.15,94.45 -110.68,0 -202.18,-35.42 -275.97,-107.73 -72.31,-72.31 -109.2,-165.28 -109.2,-275.95 0,-110.68 35.42,-202.18 107.73,-274.49 72.31,-72.31 163.81,-109.21 271.54,-109.21 101.82,0 194.8,26.56 278.91,81.17l0 -163.81c-81.16,-45.75 -174.13,-69.36 -280.39,-69.36 -156.43,0 -286.29,50.17 -389.6,152 -103.3,100.35 -154.95,228.74 -154.95,383.7 0,154.94 51.65,283.33 154.95,385.16 104.78,100.35 234.65,150.53 389.6,150.53zm488.48 -456.01c0,146.09 39.84,258.25 119.53,337.95 81.17,78.21 184.47,118.06 312.86,118.06 128.39,0 231.7,-39.85 312.86,-119.54 81.17,-79.69 121.01,-191.85 121.01,-336.47l0 -596.2 -162.33 0 0 602.1c0,193.32 -107.73,298.1 -271.54,298.1 -163.8,0 -270.06,-104.78 -270.06,-298.1l0 -602.1 -162.33 0 0 596.2zm1270.62 436.82l0 -436.82 242.02 0 311.37 436.82 196.28 0 -324.66 -454.53c141.67,-33.94 224.31,-143.14 224.31,-284.81 0,-87.07 -30.99,-157.91 -91.5,-212.51 -60.5,-54.6 -144.61,-81.17 -249.39,-81.17l-470.77 0 0 1033.02 162.34 0zm0 -883.96l298.1 0c118.06,0 187.41,56.07 187.41,150.52 0,98.88 -69.35,153.48 -187.41,153.48l-298.1 0 0 -304zm1089.09 883.96l0 -1033.02 -162.33 0 0 1033.02 162.33 0zm185.95 -883.96l340.9 0 0 883.96 162.33 0 0 -883.96 342.38 0 0 -149.06 -845.61 0 0 149.06zm1192.41 883.96l0 -1033.02 -162.33 0 0 1033.02 162.33 0zm1019.74 0l0 -149.05 -591.77 0 0 -327.62 466.33 0 0 -149.04 -466.33 0 0 -258.25 572.59 0 0 -149.06 -734.93 0 0 1033.02 754.11 0zm517.99 19.19c113.64,0 208.07,-28.05 283.34,-82.65 75.26,-54.6 113.63,-129.86 113.63,-225.79 -5.9,-116.58 -54.6,-190.37 -146.1,-239.06 -64.92,-35.42 -110.67,-53.12 -188.88,-76.74l-118.07 -33.94c-25.08,-10.33 -72.31,-25.09 -91.49,-36.89 -35.42,-25.09 -60.51,-48.7 -60.51,-92.98 0,-76.74 69.36,-131.34 211.03,-131.34 113.64,0 222.83,32.47 327.61,95.93l0 -162.34c-95.92,-57.55 -206.6,-85.59 -330.56,-85.59 -231.69,0 -374.84,110.68 -374.84,281.87 0,94.45 30.99,160.85 106.25,208.08 38.38,22.13 72.32,39.84 103.31,51.65 30.99,11.79 76.74,26.55 134.29,42.79l20.66 5.9c66.41,19.19 94.45,26.56 141.68,48.7 23.61,10.33 41.31,20.66 53.12,30.99 25.08,22.13 45.74,54.6 45.74,95.92 0,95.93 -103.29,153.48 -239.06,153.48 -70.84,0 -141.68,-13.28 -212.51,-39.84 -69.36,-26.57 -125.44,-57.56 -166.76,-94.45l0 175.61c101.83,73.79 230.22,110.69 388.12,110.69z"/>
   </g>
  </g>
 </g>
</svg>
