<?xml version="1.0" encoding="UTF-8"?>
<!DOCTYPE svg PUBLIC "-//W3C//DTD SVG 1.1//EN" "http://www.w3.org/Graphics/SVG/1.1/DTD/svg11.dtd">
<!-- Creator: CorelDRAW -->
<svg xmlns="http://www.w3.org/2000/svg" xml:space="preserve" width="183.43mm" height="36.886mm" version="1.1" style="shape-rendering:geometricPrecision; text-rendering:geometricPrecision; image-rendering:optimizeQuality; fill-rule:evenodd; clip-rule:evenodd"
viewBox="0 0 18343 3688.6"
 xmlns:xlink="http://www.w3.org/1999/xlink"
 xmlns:xodm="http://www.corel.com/coreldraw/odm/2003">
 <defs>
  <style type="text/css">
   <![CDATA[
    .fil0 {fill:#DC1A22}
    .fil1 {fill:#DC1A22;fill-rule:nonzero}
   ]]>
  </style>
 </defs>
 <g id="Слой_x0020_1">
  <metadata id="CorelCorpID_0Corel-Layer"/>
  <g id="_1274669364848">
   <g id="_1914944686464">
    <g>
     <path class="fil0" d="M3418.14 884.41c-158.18,-258.51 -378.14,-475.01 -639.26,-628.92 -273.95,-161.44 -593.56,-254.07 -935.11,-254.07 -341.55,0 -661.18,92.62 -935.1,254.07 -261.13,153.9 -481.08,370.41 -639.26,628.91 287.29,99.4 515.32,323.95 620.45,607.14 51.54,-138.83 132.49,-263.34 235.28,-365.94 184.11,-183.78 438.16,-297.42 718.63,-297.42 280.56,0 534.69,113.72 718.8,297.59 102.7,102.56 183.58,226.99 235.08,365.68 105.36,-284.07 333.63,-507.6 620.49,-607.04z"/>
     <path class="fil0" d="M2734.12 2338.53c-46.28,83.52 -103.95,159.81 -170.91,226.77 -184.13,184.11 -438.51,297.97 -719.44,297.97 -280.98,0 -535.37,-113.9 -719.5,-298.04 -184.14,-184.13 -298.04,-438.53 -298.04,-719.5 0,-388.51 -250.76,-730.37 -620.36,-848.98 -63.28,121.79 -113.35,251.39 -148.31,386.89 -37.93,147 -58.11,301.83 -58.11,462.09 0,509.29 206.43,970.38 540.19,1304.13 333.75,333.74 794.83,540.18 1304.13,540.18 241.47,0 470.45,-96.35 639.05,-269.37 156.35,-160.43 252.5,-379.43 251.56,-620.74l-0.26 -461.4z"/>
     <path class="fil0" d="M3688.08 1845.73c0,-160.26 -20.19,-315.09 -58.11,-462.09 -34.94,-135.49 -85.01,-265.09 -148.31,-386.88 -368.09,116.97 -619.68,460.19 -620.59,846.66l0 956.25c1.07,292.92 -124.71,570.91 -344.83,764.03 242.62,-95.05 460.23,-240 640.17,-422.25 328.75,-333 531.67,-790.59 531.67,-1295.72z"/>
     <path class="fil1" d="M5264.15 2870.58c234.45,0 427.03,-55.81 574.96,-170.25 147.93,-114.43 223.28,-265.15 223.28,-457.74 0,-167.46 -53.04,-298.65 -159.1,-390.74 -106.06,-92.11 -253.98,-170.25 -440.99,-231.66 -80.93,-25.11 -209.33,-58.61 -267.93,-78.15l-89.31 -30.7c-58.61,-25.12 -80.95,-53.03 -80.95,-89.32 0,-86.52 86.53,-128.38 256.79,-128.38 111.64,0 226.07,19.52 346.09,55.82 120.01,36.28 223.27,80.94 309.8,133.97l0 -482.86c-203.76,-108.85 -424.24,-161.88 -661.48,-161.88 -468.91,0 -767.55,209.32 -767.55,586.12 0,114.44 33.49,217.71 69.78,287.49 41.86,69.78 133.97,136.76 189.8,178.62 30.7,19.54 72.56,39.08 128.39,61.4l128.38 50.23 142.36 41.88 175.83 53.03c33.49,11.16 103.27,30.7 125.6,50.24 44.65,30.7 75.35,55.81 75.35,114.43 0,103.27 -100.47,153.51 -298.65,153.51 -125.6,0 -259.56,-25.12 -401.91,-78.14 -142.33,-53.04 -253.99,-114.45 -334.93,-189.8l0 513.56c203.75,139.56 454.95,209.32 756.39,209.32z"/>
     <path class="fil1" d="M9675.4 2832.08c209.33,0 379.59,-50.25 505.19,-153.51 128.39,-103.28 192.58,-240.03 192.58,-407.5 0,-142.34 -39.07,-256.78 -114.44,-348.88 -75.35,-92.1 -161.88,-147.92 -256.77,-170.25 120.01,-55.82 228.85,-189.79 228.85,-379.58 0,-320.97 -251.18,-494.02 -608.43,-494.02l-951.75 0 0 1953.74 1004.77 0zm-502.39 -834.53l404.7 0c147.93,0 245.62,78.16 245.62,209.32 0,131.19 -92.11,206.54 -245.62,206.54l-404.7 0 0 -415.86zm0 -711.71l374 0c122.81,0 200.96,64.19 200.96,173.05 0,103.26 -78.15,167.46 -200.96,167.46l-374 0 0 -340.51z"/>
     <path class="fil1" d="M7951.31 3336.66c115.15,0 219.08,-22.47 314.57,-64.6l0 -418.53c-70.2,39.32 -148.86,58.99 -233.12,58.99 -109.55,0 -199.43,-39.33 -266.85,-120.78 182.57,-81.46 325.85,-207.86 432.57,-373.59 106.73,-165.72 160.11,-351.11 160.11,-556.15 0,-283.69 -98.32,-525.25 -294.94,-724.69 -196.61,-199.43 -443.8,-297.74 -741.55,-297.74 -297.73,0 -544.92,98.31 -741.54,297.74 -196.62,199.44 -294.94,441 -294.94,724.69 0,266.84 87.08,499.98 264.04,693.78 176.97,193.82 401.67,300.56 674.14,323.03 272.47,337.07 491.55,457.85 727.51,457.85zm-999.98 -1075.81c-98.3,-103.93 -146.06,-238.75 -146.06,-398.85 0,-160.11 47.76,-294.93 146.06,-398.86 98.32,-103.93 221.91,-157.29 370.77,-157.29 148.87,0 269.66,53.36 367.97,157.29 98.32,103.93 148.87,238.75 148.87,398.86 0,160.1 -50.55,294.92 -148.87,398.85 -98.31,103.93 -219.1,157.3 -367.97,157.3 -148.86,0 -272.45,-53.37 -370.77,-157.3z"/>
    </g>
    <polygon class="fil0" points="11200.18,838.69 11300.81,838.69 11300.81,2870.59 11200.18,2870.59 "/>
    <path class="fil1" d="M12671.21 2390.34c116.59,0 216.93,-28.04 302.53,-82.65l0 -163.81c-79.69,63.46 -178.57,94.45 -295.15,94.45 -110.69,0 -202.18,-35.41 -275.97,-107.72 -72.31,-72.32 -109.21,-165.29 -109.21,-275.96 0,-110.68 35.43,-202.18 107.74,-274.49 72.31,-72.31 163.8,-109.21 271.54,-109.21 101.82,0 194.79,26.57 278.91,81.17l0 -163.81c-81.17,-45.75 -174.14,-69.36 -280.39,-69.36 -156.43,0 -286.3,50.18 -389.6,152 -103.3,100.35 -154.95,228.74 -154.95,383.7 0,154.94 51.65,283.33 154.95,385.16 104.78,100.35 234.65,150.53 389.6,150.53zm578.49 -19.19l110.67 -256.78 489.96 0 112.15 256.78 174.14 0 -451.58 -1038.92 -156.43 0 -451.58 1038.92 172.67 0zm355.65 -833.79l188.9 433.87 -377.79 0 188.89 -433.87zm854.46 833.79l0 -426.49 281.87 0c107.73,0 191.85,-28.04 252.35,-85.58 61.98,-57.56 92.97,-131.35 92.97,-221.37 0,-88.54 -30.99,-160.85 -92.97,-215.46 -60.5,-56.07 -144.62,-84.11 -252.35,-84.11l-444.21 0 0 1033.01 162.34 0zm0 -883.96l268.59 0c122.48,0 194.79,54.6 194.79,153.48 0,98.87 -72.31,154.95 -194.79,154.95l-268.59 0 0 -308.43zm984.32 883.96l0 -1033.01 -162.33 0 0 1033.01 162.33 0zm185.95 -883.96l340.9 0 0 883.96 162.33 0 0 -883.96 342.37 0 0 -149.05 -845.6 0 0 149.05zm951.85 883.96l110.68 -256.78 489.94 0 112.16 256.78 174.14 0 -451.58 -1038.92 -156.43 0 -451.57 1038.92 172.66 0zm355.65 -833.79l188.9 433.87 -377.78 0 188.88 -433.87zm1404.91 833.79l0 -149.05 -548.98 0 0 -883.96 -163.81 0 0 1033.01 712.79 0z"/>
   </g>
  </g>
 </g>
</svg>
