<?xml version="1.0" encoding="UTF-8"?>
<!DOCTYPE svg PUBLIC "-//W3C//DTD SVG 1.1//EN" "http://www.w3.org/Graphics/SVG/1.1/DTD/svg11.dtd">
<!-- Creator: CorelDRAW -->
<svg xmlns="http://www.w3.org/2000/svg" xml:space="preserve" width="240.675mm" height="36.886mm" version="1.1" style="shape-rendering:geometricPrecision; text-rendering:geometricPrecision; image-rendering:optimizeQuality; fill-rule:evenodd; clip-rule:evenodd"
viewBox="0 0 24067.5 3688.6"
 xmlns:xlink="http://www.w3.org/1999/xlink"
 xmlns:xodm="http://www.corel.com/coreldraw/odm/2003">
 <defs>
  <style type="text/css">
   <![CDATA[
    .fil0 {fill:#C66A1D}
    .fil1 {fill:#C66A1D;fill-rule:nonzero}
   ]]>
  </style>
 </defs>
 <g id="Слой_x0020_1">
  <metadata id="CorelCorpID_0Corel-Layer"/>
  <g id="_1274668331616">
   <g id="_1908108545264">
    <g>
     <path class="fil0" d="M3412.32 884.41c-158.18,-258.5 -378.14,-475.01 -639.26,-628.92 -273.95,-161.44 -593.56,-254.07 -935.11,-254.07 -341.55,0 -661.18,92.62 -935.1,254.07 -261.13,153.9 -481.08,370.42 -639.27,628.91 287.3,99.41 515.33,323.95 620.46,607.14 51.54,-138.82 132.49,-263.33 235.28,-365.93 184.11,-183.79 438.16,-297.42 718.63,-297.42 280.56,0 534.69,113.71 718.8,297.58 102.7,102.57 183.58,226.99 235.08,365.69 105.36,-284.07 333.63,-507.6 620.49,-607.05z"/>
     <path class="fil0" d="M2728.3 2338.53c-46.28,83.52 -103.95,159.82 -170.91,226.78 -184.13,184.1 -438.51,297.97 -719.44,297.97 -280.98,0 -535.37,-113.9 -719.5,-298.05 -184.15,-184.13 -298.04,-438.53 -298.04,-719.5 0,-388.51 -250.76,-730.37 -620.36,-848.98 -63.28,121.79 -113.35,251.39 -148.31,386.89 -37.93,147.01 -58.11,301.84 -58.11,462.09 0,509.29 206.43,970.38 540.19,1304.14 333.75,333.74 794.83,540.17 1304.13,540.17 241.47,0 470.45,-96.35 639.05,-269.37 156.35,-160.43 252.5,-379.42 251.56,-620.74l-0.26 -461.4z"/>
     <path class="fil0" d="M3682.26 1845.73c0,-160.25 -20.19,-315.08 -58.11,-462.09 -34.94,-135.49 -85.01,-265.09 -148.31,-386.88 -368.09,116.97 -619.68,460.19 -620.59,846.66l0 956.25c1.07,292.92 -124.71,570.91 -344.83,764.03 242.62,-95.05 460.23,-240 640.17,-422.25 328.75,-332.99 531.67,-790.58 531.67,-1295.72z"/>
     <path class="fil1" d="M5258.33 2870.58c234.45,0 427.02,-55.81 574.96,-170.25 147.93,-114.43 223.28,-265.15 223.28,-457.73 0,-167.46 -53.04,-298.66 -159.1,-390.75 -106.06,-92.1 -253.98,-170.25 -440.99,-231.65 -80.93,-25.12 -209.33,-58.62 -267.93,-78.16l-89.31 -30.7c-58.61,-25.11 -80.95,-53.02 -80.95,-89.32 0,-86.52 86.53,-128.38 256.79,-128.38 111.64,0 226.07,19.53 346.09,55.82 120.01,36.29 223.27,80.94 309.8,133.97l0 -482.86c-203.76,-108.85 -424.24,-161.88 -661.48,-161.88 -468.91,0 -767.55,209.32 -767.55,586.13 0,114.44 33.49,217.7 69.78,287.49 41.86,69.77 133.97,136.75 189.79,178.61 30.71,19.54 72.57,39.08 128.4,61.4l128.38 50.24 142.36 41.87 175.83 53.03c33.49,11.17 103.27,30.71 125.6,50.25 44.65,30.69 75.35,55.81 75.35,114.43 0,103.26 -100.47,153.51 -298.65,153.51 -125.6,0 -259.56,-25.12 -401.91,-78.15 -142.33,-53.04 -253.99,-114.44 -334.93,-189.79l0 513.55c203.75,139.56 454.95,209.32 756.39,209.32z"/>
     <path class="fil1" d="M9669.57 2832.08c209.34,0 379.6,-50.25 505.2,-153.51 128.39,-103.27 192.58,-240.03 192.58,-407.5 0,-142.34 -39.07,-256.77 -114.44,-348.88 -75.35,-92.1 -161.88,-147.92 -256.77,-170.24 120.01,-55.83 228.85,-189.8 228.85,-379.59 0,-320.97 -251.18,-494.02 -608.43,-494.02l-951.75 0 0 1953.74 1004.76 0zm-502.38 -834.53l404.7 0c147.93,0 245.62,78.16 245.62,209.33 0,131.18 -92.11,206.53 -245.62,206.53l-404.7 0 0 -415.86zm0 -711.71l374 0c122.81,0 200.96,64.2 200.96,173.05 0,103.26 -78.15,167.46 -200.96,167.46l-374 0 0 -340.51z"/>
     <path class="fil1" d="M7945.49 3336.66c115.15,0 219.08,-22.47 314.57,-64.59l0 -418.54c-70.21,39.33 -148.86,58.99 -233.12,58.99 -109.55,0 -199.43,-39.33 -266.85,-120.78 182.57,-81.46 325.85,-207.86 432.57,-373.59 106.73,-165.72 160.11,-351.11 160.11,-556.14 0,-283.7 -98.32,-525.26 -294.94,-724.69 -196.61,-199.44 -443.8,-297.75 -741.55,-297.75 -297.73,0 -544.92,98.31 -741.54,297.75 -196.62,199.43 -294.94,440.99 -294.94,724.69 0,266.83 87.08,499.97 264.04,693.78 176.97,193.81 401.67,300.56 674.14,323.02 272.46,337.07 491.55,457.85 727.51,457.85zm-999.98 -1075.8c-98.3,-103.93 -146.06,-238.75 -146.06,-398.85 0,-160.11 47.76,-294.93 146.06,-398.86 98.32,-103.93 221.91,-157.3 370.77,-157.3 148.87,0 269.66,53.37 367.97,157.3 98.32,103.93 148.87,238.75 148.87,398.86 0,160.1 -50.55,294.92 -148.87,398.85 -98.31,103.93 -219.1,157.29 -367.97,157.29 -148.86,0 -272.45,-53.36 -370.77,-157.29z"/>
    </g>
    <polygon class="fil0" points="11194.36,838.69 11294.99,838.69 11294.99,2870.59 11194.36,2870.59 "/>
    <path class="fil1" d="M12665.39 2390.34c116.59,0 216.94,-28.04 302.53,-82.64l0 -163.81c-79.69,63.45 -178.57,94.45 -295.15,94.45 -110.68,0 -202.18,-35.42 -275.97,-107.73 -72.31,-72.31 -109.2,-165.29 -109.2,-275.96 0,-110.68 35.42,-202.18 107.73,-274.49 72.31,-72.31 163.81,-109.2 271.54,-109.2 101.82,0 194.8,26.56 278.91,81.16l0 -163.8c-81.16,-45.75 -174.13,-69.36 -280.39,-69.36 -156.43,0 -286.29,50.17 -389.6,152 -103.3,100.35 -154.95,228.74 -154.95,383.69 0,154.95 51.65,283.33 154.95,385.16 104.78,100.35 234.65,150.53 389.6,150.53zm720.15 -261.21c-69.36,-73.78 -103.3,-165.28 -103.3,-274.48 0,-109.21 33.94,-200.7 103.3,-273.01 69.36,-73.79 154.96,-110.68 256.79,-110.68 101.82,0 187.42,36.89 256.78,110.68 69.36,72.31 104.77,163.8 104.77,273.01 0,109.2 -35.41,200.7 -104.77,274.48 -69.36,72.31 -154.96,109.21 -256.78,109.21 -101.83,0 -187.43,-36.9 -256.79,-109.21zm634.58 107.73c100.35,-103.3 150.52,-230.21 150.52,-382.21 0,-152 -50.17,-278.91 -150.52,-380.74 -100.35,-103.3 -225.79,-154.95 -377.79,-154.95 -152.01,0 -277.45,51.65 -377.8,154.95 -98.87,101.83 -149.05,228.74 -149.05,380.74 0,152 50.18,278.91 149.05,382.21 100.35,101.83 225.79,153.48 377.8,153.48 152,0 277.44,-51.65 377.79,-153.48zm529.8 134.29l0 -751.14 587.34 751.14 137.25 0 0 -1033.01 -159.39 0 0 748.19 -582.91 -748.19 -141.68 0 0 1033.01 159.39 0zm1307.51 19.19c113.63,0 208.08,-28.04 283.34,-82.64 75.27,-54.61 113.64,-129.87 113.64,-225.79 -5.91,-116.59 -54.61,-190.37 -146.11,-239.06 -64.93,-35.42 -110.68,-53.13 -188.89,-76.75l-118.06 -33.93c-25.09,-10.34 -72.31,-25.09 -91.5,-36.9 -35.42,-25.09 -60.5,-48.7 -60.5,-92.97 0,-76.74 69.36,-131.34 211.03,-131.34 113.63,0 222.84,32.47 327.62,95.92l0 -162.33c-95.93,-57.56 -206.61,-85.59 -330.57,-85.59 -231.7,0 -374.84,110.68 -374.84,281.86 0,94.45 30.99,160.86 106.25,208.08 38.37,22.14 72.31,39.85 103.3,51.65 31,11.8 76.74,26.56 134.3,42.79l20.66 5.9c66.41,19.19 94.45,26.57 141.67,48.7 23.61,10.33 41.32,20.66 53.13,31 25.08,22.13 45.74,54.6 45.74,95.92 0,95.92 -103.3,153.48 -239.07,153.48 -70.83,0 -141.67,-13.29 -212.5,-39.85 -69.36,-26.56 -125.44,-57.55 -166.76,-94.44l0 175.61c101.82,73.79 230.21,110.68 388.12,110.68zm494.38 -903.15l340.89 0 0 883.96 162.33 0 0 -883.96 342.37 0 0 -149.05 -845.59 0 0 149.05zm1185.02 883.96l0 -436.82 242.02 0 311.38 436.82 196.28 0 -324.67 -454.52c141.67,-33.95 224.32,-143.14 224.32,-284.82 0,-87.06 -30.99,-157.9 -91.5,-212.51 -60.51,-54.6 -144.62,-81.16 -249.41,-81.16l-470.76 0 0 1033.01 162.34 0zm0 -883.96l298.1 0c118.06,0 187.42,56.08 187.42,150.53 0,98.87 -69.36,153.47 -187.42,153.47l-298.1 0 0 -304zm906.11 447.14c0,146.1 39.85,258.26 119.53,337.95 81.17,78.21 184.47,118.06 312.87,118.06 128.38,0 231.69,-39.85 312.85,-119.54 81.17,-79.69 121.01,-191.84 121.01,-336.47l0 -596.19 -162.33 0 0 602.1c0,193.32 -107.73,298.1 -271.53,298.1 -163.81,0 -270.07,-104.78 -270.07,-298.1l0 -602.1 -162.33 0 0 596.19zm1615.94 456.01c116.59,0 216.94,-28.04 302.53,-82.64l0 -163.81c-79.69,63.45 -178.56,94.45 -295.15,94.45 -110.68,0 -202.17,-35.42 -275.96,-107.73 -72.32,-72.31 -109.21,-165.29 -109.21,-275.96 0,-110.68 35.42,-202.18 107.73,-274.49 72.31,-72.31 163.81,-109.2 271.54,-109.2 101.83,0 194.8,26.56 278.91,81.16l0 -163.8c-81.16,-45.75 -174.13,-69.36 -280.39,-69.36 -156.43,0 -286.29,50.17 -389.6,152 -103.29,100.35 -154.95,228.74 -154.95,383.69 0,154.95 51.66,283.33 154.95,385.16 104.79,100.35 234.65,150.53 389.6,150.53zm422.07 -903.15l340.89 0 0 883.96 162.33 0 0 -883.96 342.38 0 0 -149.05 -845.6 0 0 149.05zm1192.4 883.96l0 -1033.01 -162.33 0 0 1033.01 162.33 0zm498.8 -242.02c-69.36,-73.78 -103.3,-165.28 -103.3,-274.48 0,-109.21 33.94,-200.7 103.3,-273.01 69.36,-73.79 154.96,-110.68 256.78,-110.68 101.83,0 187.42,36.89 256.78,110.68 69.36,72.31 104.78,163.8 104.78,273.01 0,109.2 -35.42,200.7 -104.78,274.48 -69.36,72.31 -154.95,109.21 -256.78,109.21 -101.82,0 -187.42,-36.9 -256.78,-109.21zm634.58 107.73c100.35,-103.3 150.52,-230.21 150.52,-382.21 0,-152 -50.17,-278.91 -150.52,-380.74 -100.36,-103.3 -225.79,-154.95 -377.8,-154.95 -152,0 -277.44,51.65 -377.79,154.95 -98.87,101.83 -149.05,228.74 -149.05,380.74 0,152 50.18,278.91 149.05,382.21 100.35,101.83 225.79,153.48 377.79,153.48 152.01,0 277.44,-51.65 377.8,-153.48zm529.79 134.29l0 -751.14 587.35 751.14 137.25 0 0 -1033.01 -159.39 0 0 748.19 -582.91 -748.19 -141.68 0 0 1033.01 159.38 0z"/>
   </g>
  </g>
 </g>
</svg>
