<svg width="16" height="16" viewBox="0 0 16 16" fill="none" xmlns="http://www.w3.org/2000/svg">
<path d="M13.7148 2.00781C13.4933 1.98431 13.2524 2.01891 13.0104 2.11458C12.7104 2.23258 8.0096 4.21001 3.6276 6.05468L2.17969 6.66406C1.61902 6.89139 1.33594 7.26111 1.33594 7.75911C1.33594 8.10777 1.4835 8.5807 2.1875 8.85937L4.63151 9.83853C4.84284 10.4725 5.3337 11.9446 5.45703 12.3359C5.53036 12.5679 5.71559 13.1524 6.18359 13.2891C6.27959 13.3217 6.37977 13.3385 6.48177 13.3385C6.7771 13.3385 6.98975 13.2011 7.09375 13.1211L8.64714 11.8073L10.5339 13.5521C10.6065 13.6261 10.9911 14 11.5078 14C12.1525 14 12.6415 13.4633 12.7435 12.944C12.7988 12.6593 14.6185 3.5247 14.6185 3.52604C14.7818 2.79337 14.4881 2.4133 14.2995 2.2513C14.1378 2.11296 13.9364 2.03131 13.7148 2.00781ZM13.2734 3.44791C13.0221 4.70791 11.652 11.5855 11.444 12.5768L8.6862 10.026L6.8151 11.6107L7.33333 9.58333C7.33333 9.58333 10.9084 5.96457 11.1237 5.7539C11.297 5.58523 11.3333 5.52611 11.3333 5.46744C11.3333 5.38944 11.2932 5.33333 11.2005 5.33333C11.1172 5.33333 11.004 5.41318 10.944 5.45051C10.1818 5.92572 6.93606 7.77482 5.33854 8.68359L3.02083 7.75781L4.14583 7.28515C7.01183 6.07848 12.1161 3.92924 13.2734 3.44791Z" fill="white"/>
</svg>
