<svg width="24" height="24" viewBox="0 0 24 24" fill="none" xmlns="http://www.w3.org/2000/svg">
<path d="M17.7148 6.00784C17.4933 5.98434 17.2524 6.01894 17.0104 6.11461C16.7104 6.23261 12.0096 8.21004 7.6276 10.0547L6.17969 10.6641C5.61902 10.8914 5.33594 11.2611 5.33594 11.7591C5.33594 12.1078 5.4835 12.5807 6.1875 12.8594L8.63151 13.8386C8.84284 14.4726 9.3337 15.9446 9.45703 16.336C9.53036 16.568 9.71559 17.1524 10.1836 17.2891C10.2796 17.3218 10.3798 17.3386 10.4818 17.3386C10.7771 17.3386 10.9898 17.2011 11.0938 17.1211L12.6471 15.8073L14.5339 17.5521C14.6065 17.6261 14.9911 18 15.5078 18C16.1525 18 16.6415 17.4634 16.7435 16.944C16.7988 16.6594 18.6185 7.52473 18.6185 7.52607C18.7818 6.7934 18.4881 6.41333 18.2995 6.25133C18.1378 6.11299 17.9364 6.03134 17.7148 6.00784ZM17.2734 7.44794C17.0221 8.70794 15.652 15.5855 15.444 16.5768L12.6862 14.0261L10.8151 15.6107L11.3333 13.5834C11.3333 13.5834 14.9084 9.9646 15.1237 9.75393C15.297 9.58526 15.3333 9.52614 15.3333 9.46747C15.3333 9.38947 15.2932 9.33336 15.2005 9.33336C15.1172 9.33336 15.004 9.41321 14.944 9.45054C14.1818 9.92576 10.9361 11.7748 9.33854 12.6836L7.02083 11.7578L8.14583 11.2852C11.0118 10.0785 16.1161 7.92927 17.2734 7.44794Z" fill="white"/>
<rect x="0.5" y="0.5" width="23" height="23" rx="3.5" stroke="white" stroke-opacity="0.2"/>
</svg>
