<svg width="24" height="25" viewBox="0 0 24 25" fill="none" xmlns="http://www.w3.org/2000/svg">
<path d="M11.8162 5.79323C11.3799 5.79573 10.9424 5.82198 10.5012 5.87573C9.65744 5.97948 8.82119 6.15198 8.01869 6.52073C6.74244 7.10698 5.83744 8.10198 5.57494 9.54823C5.46369 10.1582 5.37369 10.777 5.32244 11.3995C5.22369 12.6082 5.28494 13.8207 5.62744 15.012C5.89744 15.9507 6.39494 16.7945 7.26619 17.342C7.63494 17.5732 8.12119 17.6857 8.37494 17.8032C8.44619 17.837 8.46369 17.857 8.46744 17.862C8.47119 17.8657 8.48119 17.8745 8.47994 17.9495C8.47119 18.7145 8.47994 20.1945 8.47994 20.1945L8.48119 20.5132H9.05244L9.14494 20.4232C9.14494 20.4232 10.5962 19.027 11.1212 18.452C11.2162 18.3495 11.2649 18.292 11.2749 18.2857C11.2837 18.2795 11.2687 18.2757 11.3662 18.2732C12.0549 18.2595 12.7424 18.2332 13.4299 18.1957C14.3362 18.1457 15.2599 18.0595 16.1487 17.6882C16.9224 17.3645 17.5687 16.8357 17.9599 16.0432C18.3599 15.2307 18.5737 14.3695 18.6537 13.4782C18.7862 11.9945 18.7399 10.5082 18.3299 9.04323C18.0887 8.18448 17.6037 7.45823 16.8599 6.94573C15.9699 6.33323 14.9662 6.10323 13.9837 5.95698C13.4099 5.87198 12.8324 5.81573 12.2524 5.79823C12.1074 5.79448 11.9624 5.79198 11.8162 5.79323ZM12.2349 6.43823C12.7862 6.45323 13.3374 6.50698 13.8899 6.58948C14.8374 6.73073 15.7312 6.94573 16.4974 7.47323C17.1187 7.90073 17.5062 8.47823 17.7137 9.21448C18.0962 10.5845 18.1449 11.9882 18.0162 13.422C17.9424 14.2482 17.7462 15.027 17.3849 15.7607C17.0662 16.4082 16.5687 16.8195 15.9012 17.0982C15.1262 17.422 14.2837 17.5082 13.3962 17.557C12.7162 17.5945 12.0349 17.6195 11.3537 17.6332C11.1824 17.637 11.0149 17.682 10.8962 17.7695C10.7774 17.857 10.7237 17.9382 10.6499 18.0182C10.2749 18.4282 9.52744 19.1495 9.11994 19.5445C9.11744 19.067 9.11369 18.4895 9.11994 17.957C9.12244 17.7932 9.08494 17.6257 8.99119 17.4932C8.89744 17.3607 8.76869 17.2807 8.64494 17.2232C8.28369 17.0557 7.81119 16.9282 7.60619 16.7995C6.88994 16.3495 6.48369 15.6745 6.24244 14.8345C5.92619 13.7357 5.86619 12.6045 5.95994 11.4532C6.00994 10.8557 6.09619 10.257 6.20494 9.66323C6.43244 8.41198 7.14744 7.62448 8.28494 7.10198C9.00369 6.77198 9.77119 6.60948 10.5799 6.51073C11.1312 6.44323 11.6824 6.42198 12.2349 6.43823ZM12.3699 8.03323C12.1062 8.03323 11.8499 8.06323 11.6012 8.11823C11.4299 8.15823 11.3212 8.32948 11.3599 8.50198C11.3987 8.67448 11.5712 8.78198 11.7437 8.74323C11.9449 8.69698 12.1549 8.67323 12.3699 8.67323C13.9324 8.67323 15.1924 9.93323 15.1924 11.4945C15.1924 11.7107 15.1687 11.9207 15.1224 12.1232C15.0837 12.2945 15.1912 12.467 15.3637 12.5057C15.5362 12.5445 15.7074 12.4357 15.7462 12.2632C15.8024 12.0157 15.8324 11.7595 15.8324 11.4945C15.8324 9.58698 14.2787 8.03323 12.3699 8.03323ZM9.17744 8.67448C9.12494 8.67198 9.07119 8.67573 9.01494 8.68823C8.43369 8.81698 7.85619 9.23823 7.83994 9.99073C7.85619 10.0957 7.85494 10.2082 7.89369 10.3032C8.08369 10.7682 8.24869 11.2482 8.48619 11.6882C9.64244 13.8257 11.3912 15.312 13.6199 16.2557C13.8862 16.3682 14.1612 16.392 14.4299 16.2795C14.7999 16.1257 15.1137 15.8882 15.3224 15.547C15.6087 15.0782 15.6124 14.7532 15.1412 14.407C14.8324 14.1795 14.5287 13.9457 14.2162 13.7232C13.7399 13.3857 13.2249 13.327 12.8699 13.9195C12.8512 13.9495 12.8237 13.9745 12.7999 13.9995C12.6174 14.1932 12.3937 14.2407 12.1562 14.1432C11.2549 13.772 10.5587 13.1732 10.1387 12.282C9.89119 11.7582 9.95869 11.4957 10.4212 11.147C10.4674 11.1132 10.5112 11.077 10.5537 11.0382C10.7562 10.8532 10.8099 10.6332 10.6899 10.3845C10.4187 9.81698 10.0574 9.31073 9.59994 8.87448C9.47619 8.75698 9.33494 8.68323 9.17744 8.67448ZM12.3649 8.99323C12.2237 8.99323 12.0837 9.00448 11.9462 9.02823C11.8299 9.04323 11.7312 9.12073 11.6887 9.22948C11.6462 9.33948 11.6674 9.46323 11.7424 9.55323C11.8187 9.64198 11.9387 9.68323 12.0537 9.65823C12.1537 9.64198 12.2587 9.63323 12.3649 9.63323C13.4049 9.63323 14.2399 10.4682 14.2399 11.5082C14.2399 11.6145 14.2312 11.7195 14.2149 11.8195C14.1899 11.9345 14.2312 12.0545 14.3199 12.1307C14.4099 12.2057 14.5337 12.227 14.6437 12.1845C14.7524 12.142 14.8299 12.0432 14.8449 11.927C14.8687 11.7895 14.8799 11.6495 14.8799 11.5082C14.8799 10.1232 13.7499 8.99323 12.3649 8.99323ZM12.3199 9.95323C12.2049 9.95198 12.0974 10.012 12.0387 10.112C11.9812 10.212 11.9812 10.3345 12.0387 10.4345C12.0974 10.5345 12.2049 10.5945 12.3199 10.5932C12.8537 10.5932 13.2799 11.0195 13.2799 11.5532C13.2787 11.6682 13.3387 11.7757 13.4387 11.8345C13.5387 11.892 13.6612 11.892 13.7612 11.8345C13.8612 11.7757 13.9212 11.6682 13.9199 11.5532C13.9199 10.6732 13.1999 9.95323 12.3199 9.95323Z" fill="white"/>
<path fill-rule="evenodd" clip-rule="evenodd" d="M5.27987 9.49446C5.5626 7.93723 6.54287 6.86861 7.89349 6.24819C8.73549 5.8613 9.60588 5.68363 10.4646 5.57803C10.8632 5.52948 11.2587 5.50278 11.6524 5.4953L12 5.50001L12.3362 5.50088C12.9043 5.5212 13.4688 5.57748 14.0279 5.66031C15.0224 5.80835 16.0823 6.04639 17.0302 6.69876C17.8368 7.25458 18.3605 8.04254 18.6189 8.96244C19.0417 10.473 19.0871 11.9981 18.9525 13.5051C18.8698 14.427 18.6478 15.3254 18.229 16.1761C17.8003 17.0445 17.0926 17.6186 16.2644 17.9651C15.3247 18.3576 14.356 18.4452 13.4463 18.4953C12.7708 18.5322 12.095 18.5582 11.4179 18.5723C11.3971 18.5953 11.3717 18.6231 11.3421 18.6551C11.073 18.9498 10.5735 19.4478 10.1465 19.8673C9.93169 20.0783 9.73339 20.2713 9.5888 20.4115C9.5165 20.4816 9.4576 20.5386 9.41676 20.578L9.35726 20.6354L9.35409 20.6384L9.35302 20.6395L9.17437 20.8133H8.18243L8.18001 20.1962L8.18 20.1952L8.17877 19.9527C8.17809 19.8018 8.17727 19.5927 8.17672 19.3596C8.17572 18.9328 8.17563 18.424 8.17901 18.0457C8.11773 18.0214 8.04557 17.9965 7.96012 17.967C7.90082 17.9465 7.83512 17.9238 7.76221 17.8976C7.55843 17.8243 7.31941 17.7295 7.10663 17.596C6.1552 16.9982 5.62295 16.0815 5.33918 15.0949C4.9842 13.8603 4.92264 12.6097 5.02351 11.3749C5.07577 10.7402 5.16736 10.1114 5.27987 9.49446ZM8.24775 18.075C8.26615 18.0837 8.2734 18.0884 8.2734 18.0884L8.27193 18.0874C8.2694 18.0856 8.26351 18.0811 8.25572 18.0738L8.25159 18.0698L8.24775 18.075ZM10.4286 17.8158C10.1862 18.0808 9.782 18.4815 9.41686 18.838L9.41998 17.961C9.39001 17.5087 9.10754 17.112 8.68994 16.9357L7.76581 16.5455C7.13034 16.1462 6.75851 15.5444 6.5308 14.7516C6.2271 13.6964 6.16738 12.6032 6.25898 11.478C6.308 10.8924 6.39271 10.3036 6.50009 9.71734C6.70731 8.57765 7.3467 7.86318 8.41023 7.37465C9.08951 7.06278 9.823 6.90545 10.6165 6.80856C11.1512 6.74308 11.6879 6.72233 12.2268 6.73818C12.7641 6.7528 13.3032 6.80524 13.8458 6.88626C14.7815 7.02575 15.6192 7.23288 16.3274 7.72043C16.8854 8.10436 17.2345 8.62021 17.425 9.29582C17.7947 10.6203 17.8441 11.9854 17.7174 13.3954C17.6465 14.1906 17.4584 14.9325 17.1158 15.6283C16.8348 16.1992 16.399 16.5653 15.7856 16.8215C15.0616 17.1239 14.2638 17.2089 13.3797 17.2575C12.7034 17.2948 12.0251 17.3197 11.3472 17.3334C11.1349 17.338 10.9013 17.3932 10.7183 17.528C10.5987 17.6161 10.5138 17.7163 10.4621 17.7773C10.4491 17.7926 10.4382 17.8054 10.4294 17.8149L10.4286 17.8158Z" fill="white"/>
<rect x="0.5" y="1.33325" width="23" height="23" rx="3.5" stroke="white" stroke-opacity="0.2"/>
</svg>
