<svg width="24" height="24" viewBox="0 0 24 24" fill="none" xmlns="http://www.w3.org/2000/svg">
<path d="M12.0078 5.33337C8.33714 5.33337 5.34898 8.31896 5.34765 11.9896C5.34698 13.163 5.65431 14.3084 6.23697 15.3177L5.33333 18.6667L8.82161 17.8425C9.79428 18.3732 10.8892 18.6517 12.0039 18.6524H12.0065C15.6765 18.6524 18.6634 15.6661 18.6654 11.9961C18.6667 10.2168 17.9748 8.54386 16.7174 7.2852C15.4601 6.0272 13.7891 5.33404 12.0078 5.33337ZM12.0065 6.66671C13.4305 6.66737 14.7687 7.22257 15.7747 8.22791C16.7807 9.23457 17.3334 10.5722 17.332 11.9948C17.3307 14.9308 14.9425 17.3191 12.0052 17.3191C11.1165 17.3184 10.2363 17.0952 9.46093 16.6719L9.01171 16.4271L8.51562 16.5443L7.20312 16.8542L7.52343 15.6641L7.66796 15.1302L7.39192 14.6511C6.92659 13.8457 6.68032 12.925 6.68098 11.9896C6.68232 9.05496 9.07117 6.66671 12.0065 6.66671ZM9.65104 8.91671C9.5397 8.91671 9.35969 8.95837 9.20703 9.12504C9.05436 9.29104 8.62369 9.69309 8.62369 10.5118C8.62369 11.3304 9.22005 12.1218 9.30338 12.2331C9.38605 12.3438 10.4545 14.0769 12.1458 14.7435C13.5512 15.2975 13.8366 15.1882 14.1419 15.1602C14.4473 15.1329 15.127 14.7585 15.2656 14.3698C15.4043 13.9812 15.4046 13.6468 15.3633 13.5782C15.3219 13.5088 15.2109 13.4675 15.0443 13.3842C14.8783 13.3008 14.0602 12.8991 13.9075 12.8438C13.7549 12.7885 13.6432 12.7605 13.5325 12.9271C13.4219 13.0938 13.1038 13.4675 13.0065 13.5782C12.9092 13.6895 12.8125 13.7045 12.6458 13.6211C12.4792 13.5371 11.9433 13.361 11.3073 12.7943C10.8126 12.3536 10.4788 11.8099 10.3815 11.6433C10.2848 11.4773 10.3724 11.3861 10.4557 11.3034C10.5304 11.2288 10.6211 11.1091 10.7044 11.0118C10.7871 10.9144 10.8158 10.8451 10.8711 10.7344C10.9264 10.6237 10.8981 10.5261 10.8568 10.4427C10.8154 10.3594 10.4917 9.53771 10.3437 9.20837C10.2191 8.93171 10.0874 8.92528 9.96875 8.92061C9.87208 8.91661 9.7617 8.91671 9.65104 8.91671Z" fill="white"/>
<rect x="0.5" y="0.5" width="23" height="23" rx="3.5" stroke="white" stroke-opacity="0.2"/>
</svg>
