<svg width="16" height="16" viewBox="0 0 16 16" fill="none" xmlns="http://www.w3.org/2000/svg">
<path d="M8.00001 2.66666C8.00001 2.66666 3.83037 2.66664 2.79037 2.9453C2.21637 3.09864 1.76532 3.55035 1.61199 4.12369C1.33332 5.16369 1.33334 7.99999 1.33334 7.99999C1.33334 7.99999 1.33332 10.8363 1.61199 11.8763C1.76532 12.4503 2.21704 12.9013 2.79037 13.0547C3.83037 13.3333 8.00001 13.3333 8.00001 13.3333C8.00001 13.3333 12.1696 13.3333 13.2096 13.0547C13.783 12.9013 14.2347 12.4496 14.388 11.8763C14.6667 10.8363 14.6667 7.99999 14.6667 7.99999C14.6667 7.99999 14.6667 5.16369 14.388 4.12369C14.2347 3.55035 13.783 3.09864 13.2096 2.9453C12.1696 2.66664 8.00001 2.66666 8.00001 2.66666ZM8.00001 3.99999C9.92134 3.99999 12.3273 4.08906 12.8646 4.23306C12.9773 4.26306 13.0696 4.35541 13.1003 4.46874C13.2609 5.06741 13.3333 6.89466 13.3333 7.99999C13.3333 9.10532 13.2609 10.9319 13.1003 11.5312C13.0703 11.6439 12.9779 11.7363 12.8646 11.7669C12.3279 11.9109 9.92134 12 8.00001 12C6.07934 12 3.67343 11.9109 3.13543 11.7669C3.02276 11.7369 2.93042 11.6446 2.89975 11.5312C2.73908 10.9326 2.66668 9.10532 2.66668 7.99999C2.66668 6.89466 2.73908 5.06744 2.89975 4.46744C2.92975 4.35544 3.02209 4.26306 3.13543 4.23306C3.67209 4.08906 6.07868 3.99999 8.00001 3.99999ZM6.66668 5.69009V10.3099L10.6667 7.99999L6.66668 5.69009Z" fill="white"/>
</svg>
